<?xml version="1.0" encoding="UTF-8" standalone="no"?>
<!DOCTYPE svg PUBLIC "-//W3C//DTD SVG 1.1//EN" "http://www.w3.org/Graphics/SVG/1.1/DTD/svg11.dtd">
<svg width="100%" height="100%" viewBox="0 0 80 80" version="1.1" xmlns="http://www.w3.org/2000/svg" xmlns:xlink="http://www.w3.org/1999/xlink" xml:space="preserve" xmlns:serif="http://www.serif.com/" style="fill-rule:evenodd;clip-rule:evenodd;stroke-linejoin:round;stroke-miterlimit:2;">
    <g id="Administration-locale--CD-" serif:id="Administration locale (CD)" transform="matrix(1.07778,0,0,1.16846,-2.83365,0.364275)">
        <g id="Fenêtres-D" serif:id="Fenêtres D" transform="matrix(1,0,0,1,-20.2707,-1.58067)">
            <g transform="matrix(5.29338e-17,-0.478509,1,3.38937e-17,25.1942,62.9831)">
                <path d="M7.93,45.953L20.807,45.953C21.794,45.953 22.595,45.537 22.595,45.025C22.595,44.513 21.794,44.097 20.807,44.097L7.93,44.097C6.943,44.097 6.142,44.513 6.142,45.025C6.142,45.537 6.943,45.953 7.93,45.953Z" class="sp-blue"/>
            </g>
            <g transform="matrix(5.29338e-17,-0.478509,1,3.38937e-17,25.2128,53.0671)">
                <path d="M7.93,45.953L20.807,45.953C21.794,45.953 22.595,45.537 22.595,45.025C22.595,44.513 21.794,44.097 20.807,44.097L7.93,44.097C6.943,44.097 6.142,44.513 6.142,45.025C6.142,45.537 6.943,45.953 7.93,45.953Z" class="sp-blue"/>
            </g>
            <g transform="matrix(0.762496,0,0,1.2,67.1177,20.4724)">
                <path d="M12,18.287C11.328,18.287 10.783,18.606 10.783,19L10.783,24C10.783,24.394 11.328,24.713 12,24.713L20.081,24.713C20.753,24.713 21.298,24.394 21.298,24L21.298,19C21.298,18.606 20.753,18.287 20.081,18.287L12,18.287ZM13.217,19.713L18.864,19.713C18.864,19.713 18.864,23.287 18.864,23.287C18.864,23.287 13.217,23.287 13.217,23.287L13.217,19.713Z" class="sp-blue"/>
            </g>
            <g transform="matrix(0.762496,0,0,1.2,67.1177,30.3884)">
                <path d="M12,18.287C11.328,18.287 10.783,18.606 10.783,19L10.783,24C10.783,24.394 11.328,24.713 12,24.713L20.081,24.713C20.753,24.713 21.298,24.394 21.298,24L21.298,19C21.298,18.606 20.753,18.287 20.081,18.287L12,18.287ZM13.217,19.713L18.864,19.713C18.864,19.713 18.864,23.287 18.864,23.287C18.864,23.287 13.217,23.287 13.217,23.287L13.217,19.713Z" class="sp-blue"/>
            </g>
        </g>
        <g id="Fenêtres-G" serif:id="Fenêtres G" transform="matrix(1,0,0,1,-52.7016,-1.58067)">
            <g transform="matrix(5.29338e-17,-0.478509,1,3.38937e-17,37.1942,62.9831)">
                <path d="M7.93,45.953L20.807,45.953C21.794,45.953 22.595,45.537 22.595,45.025C22.595,44.513 21.794,44.097 20.807,44.097L7.93,44.097C6.943,44.097 6.142,44.513 6.142,45.025C6.142,45.537 6.943,45.953 7.93,45.953Z" class="sp-blue"/>
            </g>
            <g transform="matrix(5.29338e-17,-0.478509,1,3.38937e-17,37.2128,53.0671)">
                <path d="M7.93,45.953L20.807,45.953C21.794,45.953 22.595,45.537 22.595,45.025C22.595,44.513 21.794,44.097 20.807,44.097L7.93,44.097C6.943,44.097 6.142,44.513 6.142,45.025C6.142,45.537 6.943,45.953 7.93,45.953Z" class="sp-blue"/>
            </g>
            <g transform="matrix(0.762496,0,0,1.2,61.1177,20.4724)">
                <path d="M12,18.287C11.328,18.287 10.783,18.606 10.783,19L10.783,24C10.783,24.394 11.328,24.713 12,24.713L20.081,24.713C20.753,24.713 21.298,24.394 21.298,24L21.298,19C21.298,18.606 20.753,18.287 20.081,18.287L12,18.287ZM13.217,19.713L18.864,19.713C18.864,19.713 18.864,23.287 18.864,23.287C18.864,23.287 13.217,23.287 13.217,23.287L13.217,19.713Z" class="sp-blue"/>
            </g>
            <g transform="matrix(0.762496,0,0,1.2,61.1177,30.3884)">
                <path d="M12,18.287C11.328,18.287 10.783,18.606 10.783,19L10.783,24C10.783,24.394 11.328,24.713 12,24.713L20.081,24.713C20.753,24.713 21.298,24.394 21.298,24L21.298,19C21.298,18.606 20.753,18.287 20.081,18.287L12,18.287ZM13.217,19.713L18.864,19.713C18.864,19.713 18.864,23.287 18.864,23.287C18.864,23.287 13.217,23.287 13.217,23.287L13.217,19.713Z" class="sp-blue"/>
            </g>
        </g>
        <g id="Porte" transform="matrix(1,0,0,1,-0.257594,0.474462)">
            <g transform="matrix(1.10587,0,0,1,24.1104,17.6749)">
                <path d="M7.93,45.881L20.807,45.881C21.27,45.881 21.646,45.497 21.646,45.025C21.646,44.553 21.27,44.169 20.807,44.169L7.93,44.169C7.467,44.169 7.091,44.553 7.091,45.025C7.091,45.497 7.467,45.881 7.93,45.881Z" class="sp-blue"/>
            </g>
            <g transform="matrix(5.29338e-17,-0.463185,1,3.28082e-17,-5.02506,66.1538)">
                <path d="M7.93,45.953L20.807,45.953C21.826,45.953 22.654,45.537 22.654,45.025C22.654,44.513 21.826,44.097 20.807,44.097L7.93,44.097C6.91,44.097 6.083,44.513 6.083,45.025C6.083,45.537 6.91,45.953 7.93,45.953Z" class="sp-blue"/>
            </g>
            <g transform="matrix(0.909091,0,0,1.2375,11.3636,-33.821)">
                <path d="M27.021,77L27.021,69.692C27.021,69.692 35.979,69.692 35.979,69.692C35.979,69.692 35.979,77 35.979,77C35.979,77.382 36.437,77.692 37,77.692C37.563,77.692 38.021,77.382 38.021,77L38.021,69C38.021,68.618 37.564,68.308 37,68.308L26,68.308C25.436,68.308 24.979,68.618 24.979,69L24.979,77C24.979,77.382 25.437,77.692 26,77.692C26.563,77.692 27.021,77.382 27.021,77Z" class="sp-blue"/>
            </g>
        </g>
        <g transform="matrix(0.605342,0,0,1,15.7863,0)">
            <path d="M35,48.548L45,48.548C45.846,48.548 46.533,48.164 46.533,47.692C46.533,47.219 45.846,46.836 45,46.836L35,46.836C34.154,46.836 33.467,47.219 33.467,47.692C33.467,48.164 34.154,48.548 35,48.548Z" class="sp-red"/>
        </g>
        <g transform="matrix(2.625,0,0,1.78488,-96.8698,-49.5522)">
            <path d="M55.762,63.613L63,63.613C63.195,63.613 63.353,63.398 63.353,63.134L63.353,50C63.353,49.735 63.195,49.521 63,49.521C62.805,49.521 62.647,49.735 62.647,50L62.647,62.654C62.647,62.654 55.762,62.654 55.762,62.654C55.567,62.654 55.408,62.869 55.408,63.134C55.408,63.398 55.567,63.613 55.762,63.613Z" class="sp-blue"/>
        </g>
        <g id="Mur-G" serif:id="Mur G" transform="matrix(1,0,0,1.14548,0.608429,-9.16535)">
            <g transform="matrix(1,0,0,1.17048,-0.628797,-7.79117)">
                <path d="M11.928,57.327L11.928,43.096C11.928,42.744 11.512,42.458 11,42.458C10.488,42.458 10.072,42.744 10.072,43.096L10.072,57.327C10.072,57.68 10.488,57.966 11,57.966C11.512,57.966 11.928,57.68 11.928,57.327Z" class="sp-blue"/>
            </g>
            <g transform="matrix(1,0,0,1,0.927831,0)">
                <path d="M28,62.252L8,62.252C7.488,62.252 7.072,62.587 7.072,62.999C7.072,63.411 7.488,63.746 8,63.746L28,63.746C28.512,63.746 28.928,63.411 28.928,62.999C28.928,62.587 28.512,62.252 28,62.252Z" class="sp-blue"/>
            </g>
        </g>
        <g id="Horloge" transform="matrix(1.47957,0,0,1.47957,-19.2222,-25.0821)">
            <g id="Aiguilles" transform="matrix(0.642118,0,0,0.642118,14.0041,13.4339)">
                <g transform="matrix(1,0,0,0.201196,-0.505661,39.6878)">
                    <path d="M41.482,25.404L41.482,17.557C41.482,15.086 41.045,13.079 40.506,13.079C39.967,13.079 39.529,15.086 39.529,17.557L39.529,25.404C39.529,27.875 39.967,29.881 40.506,29.881C41.045,29.881 41.482,27.875 41.482,25.404Z" class="sp-red"/>
                </g>
                <g transform="matrix(-6.16772e-17,-1,0.201196,-1.10078e-16,36.4677,85.4593)">
                    <path d="M41.406,25.404L41.406,17.557C41.406,14.878 41.003,12.703 40.506,12.703C40.008,12.703 39.605,14.878 39.605,17.557L39.605,25.404C39.605,28.083 40.008,30.258 40.506,30.258C41.003,30.258 41.406,28.083 41.406,25.404Z" class="sp-red"/>
                </g>
            </g>
            <g transform="matrix(0.530669,0,0,0.490616,30.8774,22.5304)">
                <path d="M16.913,32C20.728,32 23.826,35.098 23.826,38.913C23.826,42.728 20.728,45.826 16.913,45.826C13.098,45.826 10,42.728 10,38.913C10,35.098 13.098,32 16.913,32ZM16.913,34.468C19.366,34.468 21.358,36.46 21.358,38.913C21.358,41.366 19.366,43.358 16.913,43.358C14.46,43.358 12.468,41.366 12.468,38.913C12.468,36.46 14.46,34.468 16.913,34.468Z" class="sp-red"/>
            </g>
            <g transform="matrix(0.530669,0,0,0.490616,30.8774,22.5304)">
                <path d="M16.913,30.821C12.446,30.821 8.818,34.446 8.818,38.913C8.818,43.38 12.446,47.005 16.913,47.005C21.38,47.005 25.008,43.38 25.008,38.913C25.008,34.446 21.38,30.821 16.913,30.821ZM16.913,33.179C20.077,33.179 22.644,35.749 22.644,38.913C22.644,42.077 20.077,44.647 16.913,44.647C13.749,44.647 11.182,42.077 11.182,38.913C11.182,35.749 13.749,33.179 16.913,33.179ZM16.913,33.289C13.808,33.289 11.286,35.808 11.286,38.913C11.286,42.018 13.808,44.537 16.913,44.537C20.018,44.537 22.54,42.018 22.54,38.913C22.54,35.808 20.018,33.289 16.913,33.289ZM16.913,35.647C18.715,35.647 20.176,37.111 20.176,38.913C20.176,40.715 18.715,42.179 16.913,42.179C15.111,42.179 13.65,40.715 13.65,38.913C13.65,37.111 15.111,35.647 16.913,35.647Z" style="fill:none;"/>
            </g>
        </g>
        <g id="Toit">
            <g transform="matrix(3.10058,0,0,2.61131,-116.714,-1.1696)">
                <path d="M45.508,15.242L50.432,10.319C50.432,10.319 55.583,15.247 55.583,15.247C55.708,15.366 55.897,15.352 56.005,15.216C56.114,15.079 56.101,14.872 55.977,14.753L50.624,9.633C50.509,9.523 50.338,9.525 50.226,9.637L45.105,14.758C44.983,14.88 44.974,15.087 45.086,15.221C45.197,15.355 45.386,15.364 45.508,15.242Z" class="sp-blue"/>
            </g>
            <g transform="matrix(-0.888168,0,0,1,72.9927,1.85304)">
                <path d="M73.313,36.791L65.608,31.276C65.608,31.276 54,31.276 54,31.276C53.423,31.276 52.955,30.892 52.955,30.42C52.955,29.948 53.423,29.564 54,29.564L66,29.564C66.253,29.564 66.497,29.639 66.687,29.776L74.687,35.503C75.122,35.813 75.166,36.354 74.787,36.71C74.407,37.066 73.747,37.102 73.313,36.791Z" class="sp-blue"/>
            </g>
            <g transform="matrix(0.888168,0,0,1,6.4921,1.85304)">
                <path d="M74.687,35.503L66.687,29.776C66.497,29.639 66.253,29.564 66,29.564L54,29.564C53.423,29.564 52.955,29.948 52.955,30.42C52.955,30.892 53.423,31.276 54,31.276L65.608,31.276C65.608,31.276 73.313,36.791 73.313,36.791C73.747,37.102 74.407,37.066 74.787,36.71C75.166,36.354 75.122,35.813 74.687,35.503Z" class="sp-blue"/>
            </g>
        </g>
        <g id="Drapeau" transform="matrix(1,0,0,1,0,-5.34899)">
            <g transform="matrix(1,0,0,0.599235,-0.505661,11.732)">
                <path d="M41.433,25.404L41.433,17.557C41.433,16.768 41.018,16.128 40.506,16.128C39.994,16.128 39.578,16.768 39.578,17.557L39.578,25.404C39.578,26.192 39.994,26.832 40.506,26.832C41.018,26.832 41.433,26.192 41.433,25.404Z" class="sp-blue"/>
            </g>
            <g transform="matrix(1,0,0,1,0.0267105,4.59548)">
                <path d="M44.993,9.883C44.936,9.386 44.513,9 44,9C43.448,9 43,9.448 43,10L43,14L43.007,14.117C43.065,14.614 43.487,15 44,15C44.552,15 45,14.552 45,14L45,10L44.993,9.883Z" class="sp-red" style="fill-rule:nonzero;"/>
            </g>
            <g transform="matrix(1,0,0,1,0.0267105,4.59548)">
                <path d="M40.993,9.883C40.936,9.386 40.513,9 40,9C39.448,9 39,9.448 39,10L39,14L39.007,14.117C39.065,14.614 39.487,15 40,15C40.552,15 41,14.552 41,14L41,10L40.993,9.883Z" class="sp-blue" style="fill-rule:nonzero;"/>
            </g>
        </g>
    </g>
</svg>
