<?xml version="1.0" encoding="UTF-8" standalone="no"?>
<!DOCTYPE svg PUBLIC "-//W3C//DTD SVG 1.1//EN" "http://www.w3.org/Graphics/SVG/1.1/DTD/svg11.dtd">
<svg width="100%" height="100%" viewBox="0 0 80 80" version="1.1" xmlns="http://www.w3.org/2000/svg" xmlns:xlink="http://www.w3.org/1999/xlink" xml:space="preserve" xmlns:serif="http://www.serif.com/" style="fill-rule:evenodd;clip-rule:evenodd;stroke-linejoin:round;stroke-miterlimit:2;">
    <g id="Administration-nationale--CD-" serif:id="Administration nationale (CD)" transform="matrix(1.22443,0,0,1.29543,-8.93447,-7.61205)">
        <g id="Partie-D2" serif:id="Partie D2" transform="matrix(1,0,0,1,46.0998,5.32907e-15)">
            <g transform="matrix(0.654395,0,0,1,6.19086,17.9739)">
                <path d="M7.93,45.797L24.846,45.797C25.535,45.797 26.094,45.451 26.094,45.025C26.094,44.599 25.535,44.253 24.846,44.253L7.93,44.253C7.241,44.253 6.682,44.599 6.682,45.025C6.682,45.451 7.241,45.797 7.93,45.797Z" class="sp-blue"/>
            </g>
            <g id="Fenêtres-GB" serif:id="Fenêtres GB" transform="matrix(1.11753,0,0,1,-27.7069,7.97631)">
                <g transform="matrix(5.29338e-17,-0.307861,1,2.18064e-17,-7.85603,53.7746)">
                    <path d="M7.93,45.756L20.807,45.756C22.19,45.756 23.314,45.428 23.314,45.025C23.314,44.622 22.19,44.294 20.807,44.294L7.93,44.294C6.546,44.294 5.423,44.622 5.423,45.025C5.423,45.428 6.546,45.756 7.93,45.756Z" class="sp-blue"/>
                </g>
                <g transform="matrix(4.73669e-17,-0.307861,0.894834,2.18064e-17,1.86309,53.7746)">
                    <path d="M7.93,45.842L20.807,45.842C22.19,45.842 23.314,45.476 23.314,45.025C23.314,44.574 22.19,44.208 20.807,44.208L7.93,44.208C6.546,44.208 5.423,44.574 5.423,45.025C5.423,45.476 6.546,45.842 7.93,45.842Z" class="sp-blue"/>
                </g>
            </g>
            <g id="Fenêtres-GH" serif:id="Fenêtres GH" transform="matrix(1.11753,0,0,1,-27.7069,0.322718)">
                <g transform="matrix(4.73669e-17,-0.307861,0.894834,2.18064e-17,1.86309,53.7746)">
                    <path d="M7.93,45.842L20.807,45.842C22.19,45.842 23.314,45.476 23.314,45.025C23.314,44.574 22.19,44.208 20.807,44.208L7.93,44.208C6.546,44.208 5.423,44.574 5.423,45.025C5.423,45.476 6.546,45.842 7.93,45.842Z" class="sp-blue"/>
                </g>
                <g transform="matrix(5.29338e-17,-0.307861,1,2.18064e-17,-7.85603,53.7746)">
                    <path d="M7.93,45.756L20.807,45.756C22.19,45.756 23.314,45.428 23.314,45.025C23.314,44.622 22.19,44.294 20.807,44.294L7.93,44.294C6.546,44.294 5.423,44.622 5.423,45.025C5.423,45.428 6.546,45.756 7.93,45.756Z" class="sp-blue"/>
                </g>
            </g>
            <g transform="matrix(0.859697,0,0,1,4.56276,-1.02276)">
                <path d="M7.93,45.797L20.807,45.797C21.331,45.797 21.757,45.451 21.757,45.025C21.757,44.599 21.331,44.253 20.807,44.253L7.93,44.253C7.406,44.253 6.98,44.599 6.98,45.025C6.98,45.451 7.406,45.797 7.93,45.797Z" class="sp-blue"/>
            </g>
        </g>
        <g id="Partie-G" serif:id="Partie G">
            <g transform="matrix(0.654395,0,0,1,6.19086,17.9739)">
                <path d="M7.93,45.797L24.846,45.797C25.535,45.797 26.094,45.451 26.094,45.025C26.094,44.599 25.535,44.253 24.846,44.253L7.93,44.253C7.241,44.253 6.682,44.599 6.682,45.025C6.682,45.451 7.241,45.797 7.93,45.797Z" class="sp-blue"/>
            </g>
            <g id="Fenêtres-GB1" serif:id="Fenêtres GB" transform="matrix(1.11753,0,0,1,-27.7069,7.97631)">
                <g transform="matrix(5.29338e-17,-0.307861,1,2.18064e-17,-7.85603,53.7746)">
                    <path d="M7.93,45.756L20.807,45.756C22.19,45.756 23.314,45.428 23.314,45.025C23.314,44.622 22.19,44.294 20.807,44.294L7.93,44.294C6.546,44.294 5.423,44.622 5.423,45.025C5.423,45.428 6.546,45.756 7.93,45.756Z" class="sp-blue"/>
                </g>
                <g transform="matrix(5.29338e-17,-0.307861,1,2.18064e-17,-2.35603,53.7746)">
                    <path d="M7.93,45.756L20.807,45.756C22.19,45.756 23.314,45.428 23.314,45.025C23.314,44.622 22.19,44.294 20.807,44.294L7.93,44.294C6.546,44.294 5.423,44.622 5.423,45.025C5.423,45.428 6.546,45.756 7.93,45.756Z" class="sp-blue"/>
                </g>
            </g>
            <g id="Fenêtres-GH1" serif:id="Fenêtres GH" transform="matrix(1.11753,0,0,1,-27.7069,0.322718)">
                <g transform="matrix(5.29338e-17,-0.307861,1,2.18064e-17,-7.85603,53.7746)">
                    <path d="M7.93,45.756L20.807,45.756C22.19,45.756 23.314,45.428 23.314,45.025C23.314,44.622 22.19,44.294 20.807,44.294L7.93,44.294C6.546,44.294 5.423,44.622 5.423,45.025C5.423,45.428 6.546,45.756 7.93,45.756Z" class="sp-blue"/>
                </g>
                <g transform="matrix(5.29338e-17,-0.307861,1,2.18064e-17,-2.35603,53.7746)">
                    <path d="M7.93,45.756L20.807,45.756C22.19,45.756 23.314,45.428 23.314,45.025C23.314,44.622 22.19,44.294 20.807,44.294L7.93,44.294C6.546,44.294 5.423,44.622 5.423,45.025C5.423,45.428 6.546,45.756 7.93,45.756Z" class="sp-blue"/>
                </g>
            </g>
            <g transform="matrix(0.859697,0,0,1,4.56276,-1.02276)">
                <path d="M7.93,45.797L20.807,45.797C21.331,45.797 21.757,45.451 21.757,45.025C21.757,44.599 21.331,44.253 20.807,44.253L7.93,44.253C7.406,44.253 6.98,44.599 6.98,45.025C6.98,45.451 7.406,45.797 7.93,45.797Z" class="sp-blue"/>
            </g>
        </g>
        <g id="Fenêtres-CD" serif:id="Fenêtres CD" transform="matrix(1,0,0,1,12.4031,0.799671)">
            <g transform="matrix(5.29338e-17,-0.478509,1,3.38937e-17,-13.7251,49.9561)">
                <path d="M7.93,45.842L20.807,45.842C21.697,45.842 22.42,45.476 22.42,45.025C22.42,44.574 21.697,44.208 20.807,44.208L7.93,44.208C7.04,44.208 6.317,44.574 6.317,45.025C6.317,45.476 7.04,45.842 7.93,45.842Z" class="sp-red"/>
            </g>
            <g transform="matrix(5.29338e-17,-0.478509,1,3.38937e-17,-7.78974,49.9831)">
                <path d="M7.93,45.842L20.807,45.842C21.697,45.842 22.42,45.476 22.42,45.025C22.42,44.574 21.697,44.208 20.807,44.208L7.93,44.208C7.04,44.208 6.317,44.574 6.317,45.025C6.317,45.476 7.04,45.842 7.93,45.842Z" class="sp-red"/>
            </g>
            <g transform="matrix(5.29338e-17,-0.478509,1,3.38937e-17,-7.78974,62.9561)">
                <path d="M7.93,45.842L20.807,45.842C21.697,45.842 22.42,45.476 22.42,45.025C22.42,44.574 21.697,44.208 20.807,44.208L7.93,44.208C7.04,44.208 6.317,44.574 6.317,45.025C6.317,45.476 7.04,45.842 7.93,45.842Z" class="sp-red"/>
            </g>
        </g>
        <g id="Fenêtres-CG" serif:id="Fenêtres CG" transform="matrix(1,0,0,1,-1.06158,0.772753)">
            <g transform="matrix(5.29338e-17,-0.478509,1,3.38937e-17,-13.7251,49.9561)">
                <path d="M7.93,45.842L20.807,45.842C21.697,45.842 22.42,45.476 22.42,45.025C22.42,44.574 21.697,44.208 20.807,44.208L7.93,44.208C7.04,44.208 6.317,44.574 6.317,45.025C6.317,45.476 7.04,45.842 7.93,45.842Z" class="sp-red"/>
            </g>
            <g transform="matrix(5.29338e-17,-0.478509,1,3.38937e-17,-7.78974,49.9831)">
                <path d="M7.93,45.842L20.807,45.842C21.697,45.842 22.42,45.476 22.42,45.025C22.42,44.574 21.697,44.208 20.807,44.208L7.93,44.208C7.04,44.208 6.317,44.574 6.317,45.025C6.317,45.476 7.04,45.842 7.93,45.842Z" class="sp-red"/>
            </g>
            <g transform="matrix(5.29338e-17,-0.478509,1,3.38937e-17,-13.7251,62.9831)">
                <path d="M7.93,45.842L20.807,45.842C21.697,45.842 22.42,45.476 22.42,45.025C22.42,44.574 21.697,44.208 20.807,44.208L7.93,44.208C7.04,44.208 6.317,44.574 6.317,45.025C6.317,45.476 7.04,45.842 7.93,45.842Z" class="sp-red"/>
            </g>
        </g>
        <g id="Porte" transform="matrix(1,0,0,1,-0.0615819,1.07172)">
            <g transform="matrix(1.10587,0,0,1,24.1104,17.6749)">
                <path d="M7.93,45.797L20.807,45.797C21.214,45.797 21.545,45.451 21.545,45.025C21.545,44.599 21.214,44.253 20.807,44.253L7.93,44.253C7.523,44.253 7.192,44.599 7.192,45.025C7.192,45.451 7.523,45.797 7.93,45.797Z" class="sp-blue"/>
            </g>
            <g transform="matrix(5.29338e-17,-0.463185,1,3.28082e-17,-5.02506,66.1538)">
                <path d="M7.93,45.842L20.807,45.842C21.726,45.842 22.473,45.476 22.473,45.025C22.473,44.574 21.726,44.208 20.807,44.208L7.93,44.208C7.01,44.208 6.264,44.574 6.264,45.025C6.264,45.476 7.01,45.842 7.93,45.842Z" class="sp-blue"/>
            </g>
            <g transform="matrix(0.909091,0,0,1.2375,11.3636,-33.821)">
                <path d="M26.898,77L26.898,69.624C26.898,69.624 36.102,69.624 36.102,69.624C36.102,69.624 36.102,77 36.102,77C36.102,77.344 36.504,77.624 37,77.624C37.496,77.624 37.898,77.344 37.898,77L37.898,69C37.898,68.655 37.496,68.376 37,68.376L26,68.376C25.504,68.376 25.102,68.655 25.102,69L25.102,77C25.102,77.344 25.504,77.624 26,77.624C26.496,77.624 26.898,77.344 26.898,77Z" class="sp-blue"/>
            </g>
        </g>
        <g id="Murs-C" serif:id="Murs C" transform="matrix(1,0,0,1,-0.0615819,0.772753)">
            <g transform="matrix(5.29338e-17,-1.91825,1,1.35873e-16,-18.7945,78.2112)">
                <path d="M7.93,45.842L20.807,45.842C21.029,45.842 21.209,45.476 21.209,45.025C21.209,44.574 21.029,44.208 20.807,44.208L7.93,44.208C7.708,44.208 7.528,44.574 7.528,45.025C7.528,45.476 7.708,45.842 7.93,45.842Z" class="sp-blue"/>
            </g>
            <g transform="matrix(5.29338e-17,-1.91825,1,1.35873e-16,8.79783,78.2112)">
                <path d="M7.93,45.842L20.807,45.842C21.029,45.842 21.209,45.476 21.209,45.025C21.209,44.574 21.029,44.208 20.807,44.208L7.93,44.208C7.708,44.208 7.528,44.574 7.528,45.025C7.528,45.476 7.708,45.842 7.93,45.842Z" class="sp-blue"/>
            </g>
        </g>
        <g id="Toit" transform="matrix(1,0,0,1,-0.51487,0.975676)">
            <g transform="matrix(1.18013,0,0,1,3.35106,8.11629)">
                <path d="M18.259,27.15L44.665,27.15C45.047,27.15 45.357,26.804 45.357,26.378C45.357,25.952 45.047,25.606 44.665,25.606L18.259,25.606C17.877,25.606 17.567,25.952 17.567,26.378C17.567,26.804 17.877,27.15 18.259,27.15Z" class="sp-blue"/>
            </g>
            <g transform="matrix(1.17529,0,0,0.53379,-9.82717,10.6967)">
                <path d="M56.35,43.267L42.981,30.554C42.796,30.378 42.584,30.38 42.399,30.558L29.254,43.271C28.906,43.607 28.755,44.468 28.916,45.192C29.078,45.915 29.492,46.23 29.839,45.894L42.695,33.462C42.695,33.462 55.772,45.897 55.772,45.897C56.121,46.229 56.534,45.909 56.693,45.183C56.853,44.457 56.699,43.599 56.35,43.267Z" class="sp-blue"/>
            </g>
        </g>
        <g id="Drapeau" transform="matrix(1,0,0,1,-0.0615819,0.772753)">
            <g transform="matrix(1,0,0,0.599235,-0.505661,11.732)">
                <path d="M41.322,25.404L41.322,17.557C41.322,16.804 40.956,16.194 40.506,16.194C40.055,16.194 39.689,16.804 39.689,17.557L39.689,25.404C39.689,26.156 40.055,26.767 40.506,26.767C40.956,26.767 41.322,26.156 41.322,25.404Z" class="sp-blue"/>
            </g>
            <g transform="matrix(1,0,0,1,0.0267105,4.59548)">
                <path d="M44.993,9.883C44.936,9.386 44.513,9 44,9C43.448,9 43,9.448 43,10L43,14L43.007,14.117C43.065,14.614 43.487,15 44,15C44.552,15 45,14.552 45,14L45,10L44.993,9.883Z" class="sp-red" style="fill-rule:nonzero;"/>
            </g>
            <g transform="matrix(1,0,0,1,0.0267105,4.59548)">
                <path d="M40.993,9.883C40.936,9.386 40.513,9 40,9C39.448,9 39,9.448 39,10L39,14L39.007,14.117C39.065,14.614 39.487,15 40,15C40.552,15 41,14.552 41,14L41,10L40.993,9.883Z" class="sp-blue" style="fill-rule:nonzero;"/>
            </g>
        </g>
    </g>
</svg>
