<?xml version="1.0" encoding="UTF-8" standalone="no"?>
<!DOCTYPE svg PUBLIC "-//W3C//DTD SVG 1.1//EN" "http://www.w3.org/Graphics/SVG/1.1/DTD/svg11.dtd">
<svg width="100%" height="100%" viewBox="0 0 80 80" version="1.1" xmlns="http://www.w3.org/2000/svg" xmlns:xlink="http://www.w3.org/1999/xlink" xml:space="preserve" xmlns:serif="http://www.serif.com/" style="fill-rule:evenodd;clip-rule:evenodd;stroke-linejoin:round;stroke-miterlimit:2;">
    <g id="culture--CD-" serif:id="culture (CD)" transform="matrix(1,0,0,1,0.386109,-1.52608)">
        <g transform="matrix(0.978164,-0.0300375,-0.0300433,0.958673,3.67347,5.06157)">
            <path d="M14.27,32.684L45.345,75.534C45.691,76.011 46.335,76.135 46.782,75.811C47.228,75.487 47.31,74.837 46.965,74.36L15.889,31.51C15.544,31.033 14.9,30.909 14.453,31.233C14.006,31.557 13.924,32.207 14.27,32.684Z" class="sp-blue" style="fill-opacity:0.25;"/>
        </g>
        <g transform="matrix(0.999828,0.00285924,0.00286122,0.952436,-0.144916,2.38905)">
            <path d="M49.532,72.697L51.307,42.547C51.341,41.968 50.921,41.472 50.37,41.44C49.819,41.407 49.344,41.851 49.31,42.429L47.535,72.58C47.501,73.159 47.921,73.655 48.472,73.687C49.023,73.719 49.497,73.276 49.532,72.697Z" class="sp-red"/>
        </g>
        <g transform="matrix(1.08567,-0.0798098,-0.0798098,1.07435,-2.43226,2.26601)">
            <path d="M73.133,50.302L53.141,71.491C52.814,71.838 52.869,72.431 53.264,72.817C53.659,73.202 54.245,73.233 54.572,72.887L74.565,51.698C74.891,51.352 74.836,50.758 74.441,50.373C74.046,49.987 73.46,49.956 73.133,50.302Z" class="sp-blue"/>
        </g>
        <path d="M19.995,75.429L16.403,37.922C16.351,37.373 15.862,36.969 15.313,37.022C14.763,37.075 14.36,37.563 14.412,38.113L18.005,75.62C18.057,76.169 18.546,76.573 19.095,76.52C19.645,76.467 20.048,75.979 19.995,75.429Z" class="sp-blue"/>
        <g transform="matrix(1,0,0,1,1.26787,0.577875)">
            <path d="M24.846,74.947L24.846,63.767C24.846,63.767 27.942,63.767 27.942,63.767C27.942,63.767 32.25,69.891 32.25,69.891C32.25,69.891 32.25,74.947 32.25,74.947C32.25,75.499 32.698,75.947 33.25,75.947C33.802,75.947 34.25,75.499 34.25,74.947L34.25,69.575C34.25,69.369 34.186,69.168 34.068,69L29.279,62.191C29.092,61.925 28.787,61.767 28.461,61.767L23.846,61.767C23.294,61.767 22.846,62.214 22.846,62.767L22.846,74.947C22.846,75.499 23.294,75.947 23.846,75.947C24.398,75.947 24.846,75.499 24.846,74.947Z" class="sp-blue"/>
        </g>
        <path d="M72.779,55.14L62.768,75.076C62.521,75.569 62.72,76.171 63.213,76.418C63.706,76.666 64.308,76.467 64.556,75.973L74.566,56.037C74.814,55.544 74.615,54.942 74.122,54.695C73.628,54.447 73.027,54.646 72.779,55.14Z" class="sp-blue"/>
        <g transform="matrix(1,0,0,1,-0.386109,1.52608)">
            <path d="M53.855,43.684L72.257,50.071C72.257,50.071 49.941,73.307 49.941,73.307C49.559,73.705 49.572,74.339 49.97,74.721C50.368,75.104 51.001,75.091 51.384,74.693L74.78,50.331C75.016,50.085 75.111,49.736 75.031,49.405C74.952,49.073 74.709,48.805 74.387,48.693L54.511,41.795C53.989,41.614 53.419,41.89 53.238,42.412C53.057,42.933 53.334,43.503 53.855,43.684Z" class="sp-blue"/>
        </g>
        <g transform="matrix(1,0,0,1,-0.386109,1.52608)">
            <path d="M47.958,39.283L15.747,28.818C15.336,28.685 14.887,28.829 14.631,29.177C14.376,29.525 14.373,29.998 14.623,30.349L46.141,74.579C46.461,75.028 47.086,75.133 47.535,74.813C47.985,74.493 48.09,73.868 47.769,73.418L18.01,31.656C18.01,31.656 47.34,41.185 47.34,41.185C47.865,41.356 48.43,41.068 48.6,40.543C48.771,40.019 48.483,39.454 47.958,39.283Z" class="sp-blue"/>
        </g>
        <path d="M12.49,34.11L3.72,51.551C3.582,51.826 3.578,52.149 3.71,52.427L14.809,75.951C15.044,76.45 15.641,76.665 16.14,76.429C16.639,76.194 16.853,75.597 16.618,75.098L5.726,52.014C5.726,52.014 14.277,35.009 14.277,35.009C14.525,34.516 14.326,33.914 13.833,33.666C13.34,33.418 12.738,33.617 12.49,34.11Z" class="sp-red"/>
    </g>
</svg>
