<?xml version="1.0" encoding="UTF-8" standalone="no"?>
<!DOCTYPE svg PUBLIC "-//W3C//DTD SVG 1.1//EN" "http://www.w3.org/Graphics/SVG/1.1/DTD/svg11.dtd">
<svg width="100%" height="100%" viewBox="0 0 80 80" version="1.1" xmlns="http://www.w3.org/2000/svg" xmlns:xlink="http://www.w3.org/1999/xlink" xml:space="preserve" xmlns:serif="http://www.serif.com/" style="fill-rule:evenodd;clip-rule:evenodd;stroke-linejoin:round;stroke-miterlimit:2;">
    <g id="Droit-justice--CD-" serif:id="Droit justice (CD)">
        <g id="Socle">
            <path d="M5,76L75,76C75.552,76 76,75.552 76,75C76,74.448 75.552,74 75,74L5,74C4.448,74 4,74.448 4,75C4,75.552 4.448,76 5,76Z" class="sp-blue"/>
            <path d="M9,71L71,71C71.552,71 72,70.552 72,70C72,69.448 71.552,69 71,69L9,69C8.448,69 8,69.448 8,70C8,70.552 8.448,71 9,71Z" class="sp-blue"/>
        </g>
        <g id="Piliers" transform="matrix(1.1,0,0,0.676471,-1.8,21.3529)">
            <path d="M13.909,66L13.909,32C13.909,31.184 13.502,30.522 13,30.522C12.498,30.522 12.091,31.184 12.091,32L12.091,66C12.091,66.816 12.498,67.478 13,67.478C13.502,67.478 13.909,66.816 13.909,66Z" class="sp-blue"/>
            <g transform="matrix(1,0,0,1,10,0)">
                <path d="M13.909,66L13.909,32C13.909,31.184 13.502,30.522 13,30.522C12.498,30.522 12.091,31.184 12.091,32L12.091,66C12.091,66.816 12.498,67.478 13,67.478C13.502,67.478 13.909,66.816 13.909,66Z" class="sp-blue"/>
            </g>
            <g transform="matrix(1,0,0,0.73913,20,17.2174)">
                <path d="M13.909,66L13.909,32C13.909,30.896 13.502,30 13,30C12.498,30 12.091,30.896 12.091,32L12.091,66C12.091,67.104 12.498,68 13,68C13.502,68 13.909,67.104 13.909,66Z" class="sp-blue"/>
            </g>
            <g transform="matrix(1,0,0,0.73913,30,17.2174)">
                <path d="M13.909,66L13.909,32C13.909,30.896 13.502,30 13,30C12.498,30 12.091,30.896 12.091,32L12.091,66C12.091,67.104 12.498,68 13,68C13.502,68 13.909,67.104 13.909,66Z" class="sp-blue"/>
            </g>
            <g transform="matrix(1,0,0,1,40,0)">
                <path d="M13.909,66L13.909,32C13.909,31.184 13.502,30.522 13,30.522C12.498,30.522 12.091,31.184 12.091,32L12.091,66C12.091,66.816 12.498,67.478 13,67.478C13.502,67.478 13.909,66.816 13.909,66Z" class="sp-blue"/>
            </g>
            <g transform="matrix(1,0,0,1,50,0)">
                <path d="M13.909,66L13.909,32C13.909,31.184 13.502,30.522 13,30.522C12.498,30.522 12.091,31.184 12.091,32L12.091,66C12.091,66.816 12.498,67.478 13,67.478C13.502,67.478 13.909,66.816 13.909,66Z" class="sp-blue"/>
            </g>
        </g>
        <g id="Balance" transform="matrix(0.963374,0,0,0.963374,1.28194,7.53686)">
            <g id="Plateau-D" serif:id="Plateau D" transform="matrix(1,0,0,1,-0.350678,0)">
                <g transform="matrix(1,0,0,1,17.377,8.72632)">
                    <path d="M27.113,22.54C27.113,22.54 27.61,23.362 28.448,23.968C29.082,24.427 29.894,24.755 30.816,24.652C31.705,24.552 32.758,24.047 33.829,22.624C34.174,22.167 34.082,21.515 33.624,21.171C33.167,20.826 32.515,20.918 32.171,21.376C31.582,22.158 31.073,22.534 30.585,22.588C30.223,22.629 29.914,22.467 29.665,22.287C29.179,21.934 28.887,21.46 28.887,21.46C28.589,20.971 27.95,20.815 27.46,21.113C26.971,21.411 26.815,22.05 27.113,22.54Z" class="sp-red"/>
                </g>
                <g transform="matrix(1.33183,0,0,1.33183,-16.6486,-7.99568)">
                    <g transform="matrix(0.944496,-0.488484,0.502596,0.717995,0.668248,29.2749)">
                        <path d="M39.26,20.119L39.26,23.752C39.26,24.243 39.592,24.588 40,24.522C40.408,24.456 40.74,24.004 40.74,23.513L40.74,19.881C40.74,19.39 40.408,19.045 40,19.111C39.592,19.177 39.26,19.629 39.26,20.119Z" class="sp-red"/>
                    </g>
                    <g transform="matrix(0.819152,0.573576,-0.498906,0.712512,25.7063,-13.0979)">
                        <path d="M39.221,20L39.221,23.633C39.221,24.127 39.57,24.529 40,24.529C40.43,24.529 40.779,24.127 40.779,23.633L40.779,20C40.779,19.505 40.43,19.104 40,19.104C39.57,19.104 39.221,19.505 39.221,20Z" class="sp-red"/>
                    </g>
                </g>
            </g>
            <g id="Plateau-G" serif:id="Plateau G" transform="matrix(1,0,0,1,-15.4033,0)">
                <g transform="matrix(1,0,0,1,17.377,8.72632)">
                    <path d="M27.113,22.54C27.113,22.54 27.61,23.362 28.448,23.968C29.082,24.427 29.894,24.755 30.816,24.652C31.705,24.552 32.758,24.047 33.829,22.624C34.174,22.167 34.082,21.515 33.624,21.171C33.167,20.826 32.515,20.918 32.171,21.376C31.582,22.158 31.073,22.534 30.585,22.588C30.223,22.629 29.914,22.467 29.665,22.287C29.179,21.934 28.887,21.46 28.887,21.46C28.589,20.971 27.95,20.815 27.46,21.113C26.971,21.411 26.815,22.05 27.113,22.54Z" class="sp-red"/>
                </g>
                <g transform="matrix(1.33183,0,0,1.33183,-16.6486,-7.99568)">
                    <g transform="matrix(0.944496,-0.488484,0.502596,0.717995,0.668248,29.2749)">
                        <path d="M39.26,20.119L39.26,23.752C39.26,24.243 39.592,24.588 40,24.522C40.408,24.456 40.74,24.004 40.74,23.513L40.74,19.881C40.74,19.39 40.408,19.045 40,19.111C39.592,19.177 39.26,19.629 39.26,20.119Z" class="sp-red"/>
                    </g>
                    <g transform="matrix(0.819152,0.573576,-0.498906,0.712512,25.7063,-13.0979)">
                        <path d="M39.221,20L39.221,23.633C39.221,24.127 39.57,24.529 40,24.529C40.43,24.529 40.779,24.127 40.779,23.633L40.779,20C40.779,19.505 40.43,19.104 40,19.104C39.57,19.104 39.221,19.505 39.221,20Z" class="sp-red"/>
                    </g>
                </g>
            </g>
            <g id="Armature">
                <g transform="matrix(1.54545,0,0,1,-21.8182,2.84211)">
                    <path d="M34.5,18.038L45.5,18.038C45.871,18.038 46.172,17.573 46.172,17C46.172,16.427 45.871,15.962 45.5,15.962L34.5,15.962C34.129,15.962 33.828,16.427 33.828,17C33.828,17.573 34.129,18.038 34.5,18.038Z" class="sp-red"/>
                </g>
                <g transform="matrix(0.492823,0,0,1,20.2871,21.3684)">
                    <path d="M34.5,18.038L45.5,18.038C46.662,18.038 47.606,17.573 47.606,17C47.606,16.427 46.662,15.962 45.5,15.962L34.5,15.962C33.338,15.962 32.394,16.427 32.394,17C32.394,17.573 33.338,18.038 34.5,18.038Z" class="sp-red"/>
                </g>
                <g transform="matrix(1,0,0,3.01392,0,-36.2784)">
                    <path d="M38.962,20L38.962,23.633C38.962,23.823 39.427,23.977 40,23.977C40.573,23.977 41.038,23.823 41.038,23.633L41.038,20C41.038,19.81 40.573,19.656 40,19.656C39.427,19.656 38.962,19.81 38.962,20Z" class="sp-red"/>
                </g>
            </g>
        </g>
        <g id="Toit" transform="matrix(1,0,0,1,-0.170455,0.5)">
            <g transform="matrix(0.247434,0,0,1,6.77309,-32)">
                <path d="M9,71L71,71C73.231,71 75.041,70.552 75.041,70C75.041,69.448 73.231,69 71,69L9,69C6.769,69 4.959,69.448 4.959,70C4.959,70.552 6.769,71 9,71Z" class="sp-blue"/>
            </g>
            <g transform="matrix(0.247434,0,0,1,53.7731,-32)">
                <path d="M9,71L71,71C73.231,71 75.041,70.552 75.041,70C75.041,69.448 73.231,69 71,69L9,69C6.769,69 4.959,69.448 4.959,70C4.959,70.552 6.769,71 9,71Z" class="sp-blue"/>
            </g>
            <g transform="matrix(1,0,0,1,0.170455,8.5)">
                <path d="M10.504,22.364L40,5.158C40,5.158 69.496,22.364 69.496,22.364C69.973,22.642 70.586,22.481 70.864,22.004C71.142,21.527 70.981,20.914 70.504,20.636L40.504,3.136C40.193,2.955 39.807,2.955 39.496,3.136L9.496,20.636C9.019,20.914 8.858,21.527 9.136,22.004C9.414,22.481 10.027,22.642 10.504,22.364Z" class="sp-blue"/>
            </g>
        </g>
    </g>
</svg>
