<?xml version="1.0" encoding="UTF-8" standalone="no"?>
<!DOCTYPE svg PUBLIC "-//W3C//DTD SVG 1.1//EN" "http://www.w3.org/Graphics/SVG/1.1/DTD/svg11.dtd">
<svg width="100%" height="100%" viewBox="0 0 80 80" version="1.1" xmlns="http://www.w3.org/2000/svg" xmlns:xlink="http://www.w3.org/1999/xlink" xml:space="preserve" xmlns:serif="http://www.serif.com/" style="fill-rule:evenodd;">
	<g id="Economie--CD-">
		<g id="Socle">
			<path class="sp-blue" d="M1.1,74.84H77.96c.61,0,1.1-.53,1.1-1.17s-.49-1.17-1.1-1.17H1.1c-.61,0-1.1,.53-1.1,1.17s.49,1.17,1.1,1.17Z"/>
			<path class="sp-blue" d="M5.49,68.97H73.57c.61,0,1.1-.53,1.1-1.17s-.49-1.17-1.1-1.17H5.49c-.61,0-1.1,.53-1.1,1.17s.49,1.17,1.1,1.17Z"/>
		</g>
		<g id="Piliers">
			<path class="sp-blue" d="M10.43,63.1V26.73c0-.65-.49-1.17-1.1-1.17s-1.1,.53-1.1,1.17V63.1c0,.65,.49,1.17,1.1,1.17s1.1-.53,1.1-1.17Z"/>
			<path class="sp-blue" d="M22.51,63.1V26.73c0-.65-.49-1.17-1.1-1.17s-1.1,.53-1.1,1.17V63.1c0,.65,.49,1.17,1.1,1.17s1.1-.53,1.1-1.17Z"/>
			<path class="sp-blue" d="M34.59,63.1v-7.04c0-.65-.49-1.17-1.1-1.17s-1.1,.53-1.1,1.17v7.04c0,.65,.49,1.17,1.1,1.17s1.1-.53,1.1-1.17Z"/>
			<path class="sp-blue" d="M34.59,33.35v-7.04c0-.65-.49-1.17-1.1-1.17s-1.1,.53-1.1,1.17v7.04c0,.65,.49,1.17,1.1,1.17s1.1-.53,1.1-1.17Z"/>
			<path class="sp-blue" d="M46.67,63.1v-7.04c0-.65-.49-1.17-1.1-1.17s-1.1,.53-1.1,1.17v7.04c0,.65,.49,1.17,1.1,1.17s1.1-.53,1.1-1.17Z"/>
			<path class="sp-blue" d="M46.67,33.35v-7.04c0-.65-.49-1.17-1.1-1.17s-1.1,.53-1.1,1.17v7.04c0,.65,.49,1.17,1.1,1.17s1.1-.53,1.1-1.17Z"/>
			<path class="sp-blue" d="M58.75,63.1V26.73c0-.65-.49-1.17-1.1-1.17s-1.1,.53-1.1,1.17V63.1c0,.65,.49,1.17,1.1,1.17s1.1-.53,1.1-1.17Z"/><path class="sp-blue" d="M70.83,63.1V26.73c0-.65-.49-1.17-1.1-1.17s-1.1,.53-1.1,1.17V63.1c0,.65,.49,1.17,1.1,1.17s1.1-.53,1.1-1.17Z"/>
		</g>
		<g id="_-gras">
			<path class="sp-red" d="M44.37,36.93l-.63,3.17c-.61-.65-1.49-.97-2.66-.97s-2.11,.45-2.83,1.34c-.41,.5-.7,1.14-.87,1.89h5.9l-.34,1.78h-5.77c0,.18-.01,.4-.01,.68s0,.55,.02,.84h5.46l-.34,1.78h-4.89c.18,.82,.45,1.46,.83,1.93,.71,.9,1.64,1.35,2.79,1.35,1.37,0,2.47-.45,3.28-1.35v3.51c-.93,.5-2.01,.74-3.25,.74-2.09,0-3.8-.76-5.15-2.29-.91-1.04-1.52-2.33-1.81-3.88h-1.59l.34-1.78h1.05c0-.18,0-.38,0-.58,0-.35,0-.66,.02-.93h-1.4l.34-1.78h1.28c.3-1.52,.9-2.79,1.79-3.82,1.35-1.54,3.13-2.31,5.33-2.31,1.2,0,2.25,.23,3.13,.7Z"/>
		</g>
		<g id="Toit">
			<path class="sp-blue" d="M74.67,23.52H4.39c-.47,0-.84-.4-.84-.9s.38-.9,.84-.9H74.67c.47,0,.84,.4,.84,.9s-.38,.9-.84,.9Z"/>
			<path class="sp-blue" d="M72.47,17.67c-.12,0-.24-.03-.35-.08L39.53,1.92,6.94,17.59c-.43,.21-.94,0-1.13-.46-.19-.46,0-1,.43-1.21L39.18,.08c.22-.11,.48-.11,.7,0l32.94,15.84c.43,.21,.62,.75,.43,1.21-.14,.34-.45,.54-.78,.54Z"/>
			<path class="sp-blue" d="M39.53,9.13c1.97,0,3.57,1.71,3.57,3.81s-1.6,3.81-3.57,3.81-3.57-1.71-3.57-3.81,1.6-3.81,3.57-3.81Zm0,1.91c.98,0,1.78,.85,1.78,1.91s-.8,1.91-1.78,1.91-1.78-.85-1.78-1.91,.8-1.91,1.78-1.91Z"/>
		</g>
	</g>
</svg>