<?xml version="1.0" encoding="UTF-8" standalone="no"?>
<!DOCTYPE svg PUBLIC "-//W3C//DTD SVG 1.1//EN" "http://www.w3.org/Graphics/SVG/1.1/DTD/svg11.dtd">
<svg width="100%" height="100%" viewBox="0 0 80 80" version="1.1" xmlns="http://www.w3.org/2000/svg" xmlns:xlink="http://www.w3.org/1999/xlink" xml:space="preserve" xmlns:serif="http://www.serif.com/" style="fill-rule:evenodd;clip-rule:evenodd;stroke-linejoin:round;stroke-miterlimit:2;">
    <g id="enseignement--CD-" serif:id="enseignement (CD)" transform="matrix(1.22443,0,0,1.29543,-8.93447,-7.61205)">
        <g id="Partie-D2" serif:id="Partie D2" transform="matrix(1,0,0,1,46.0998,5.32907e-15)">
            <g transform="matrix(0.654395,0,0,1,6.19086,17.9739)">
                <path d="M7.93,45.797L24.846,45.797C25.535,45.797 26.094,45.451 26.094,45.025C26.094,44.599 25.535,44.253 24.846,44.253L7.93,44.253C7.241,44.253 6.682,44.599 6.682,45.025C6.682,45.451 7.241,45.797 7.93,45.797Z" class="sp-blue"/>
            </g>
            <g id="Fenêtres-GB" serif:id="Fenêtres GB" transform="matrix(1.11753,0,0,1,-27.7069,7.97631)">
                <g transform="matrix(5.29338e-17,-0.307861,1,2.18064e-17,-7.85603,53.7746)">
                    <path d="M7.93,45.756L20.807,45.756C22.19,45.756 23.314,45.428 23.314,45.025C23.314,44.622 22.19,44.294 20.807,44.294L7.93,44.294C6.546,44.294 5.423,44.622 5.423,45.025C5.423,45.428 6.546,45.756 7.93,45.756Z" class="sp-blue"/>
                </g>
                <g transform="matrix(5.29338e-17,-0.307861,1,2.18064e-17,-2.35603,53.7746)">
                    <path d="M7.93,45.756L20.807,45.756C22.19,45.756 23.314,45.428 23.314,45.025C23.314,44.622 22.19,44.294 20.807,44.294L7.93,44.294C6.546,44.294 5.423,44.622 5.423,45.025C5.423,45.428 6.546,45.756 7.93,45.756Z" class="sp-blue"/>
                </g>
            </g>
            <g id="Fenêtres-GH" serif:id="Fenêtres GH" transform="matrix(1.11753,0,0,1,-27.7069,0.322718)">
                <g transform="matrix(5.29338e-17,-0.307861,1,2.18064e-17,-7.85603,53.7746)">
                    <path d="M7.93,45.756L20.807,45.756C22.19,45.756 23.314,45.428 23.314,45.025C23.314,44.622 22.19,44.294 20.807,44.294L7.93,44.294C6.546,44.294 5.423,44.622 5.423,45.025C5.423,45.428 6.546,45.756 7.93,45.756Z" class="sp-blue"/>
                </g>
                <g transform="matrix(5.29338e-17,-0.307861,1,2.18064e-17,-2.35603,53.7746)">
                    <path d="M7.93,45.756L20.807,45.756C22.19,45.756 23.314,45.428 23.314,45.025C23.314,44.622 22.19,44.294 20.807,44.294L7.93,44.294C6.546,44.294 5.423,44.622 5.423,45.025C5.423,45.428 6.546,45.756 7.93,45.756Z" class="sp-blue"/>
                </g>
            </g>
            <g transform="matrix(0.859697,0,0,1,4.56276,-1.02276)">
                <path d="M7.93,45.797L20.807,45.797C21.331,45.797 21.757,45.451 21.757,45.025C21.757,44.599 21.331,44.253 20.807,44.253L7.93,44.253C7.406,44.253 6.98,44.599 6.98,45.025C6.98,45.451 7.406,45.797 7.93,45.797Z" class="sp-blue"/>
            </g>
        </g>
        <g id="Partie-G" serif:id="Partie G">
            <g transform="matrix(0.654395,0,0,1,6.19086,17.9739)">
                <path d="M7.93,45.797L24.846,45.797C25.535,45.797 26.094,45.451 26.094,45.025C26.094,44.599 25.535,44.253 24.846,44.253L7.93,44.253C7.241,44.253 6.682,44.599 6.682,45.025C6.682,45.451 7.241,45.797 7.93,45.797Z" class="sp-blue"/>
            </g>
            <g id="Fenêtres-GB1" serif:id="Fenêtres GB" transform="matrix(1.11753,0,0,1,-27.7069,7.97631)">
                <g transform="matrix(5.29338e-17,-0.307861,1,2.18064e-17,-7.85603,53.7746)">
                    <path d="M7.93,45.756L20.807,45.756C22.19,45.756 23.314,45.428 23.314,45.025C23.314,44.622 22.19,44.294 20.807,44.294L7.93,44.294C6.546,44.294 5.423,44.622 5.423,45.025C5.423,45.428 6.546,45.756 7.93,45.756Z" class="sp-blue"/>
                </g>
                <g transform="matrix(5.29338e-17,-0.307861,1,2.18064e-17,-2.35603,53.7746)">
                    <path d="M7.93,45.756L20.807,45.756C22.19,45.756 23.314,45.428 23.314,45.025C23.314,44.622 22.19,44.294 20.807,44.294L7.93,44.294C6.546,44.294 5.423,44.622 5.423,45.025C5.423,45.428 6.546,45.756 7.93,45.756Z" class="sp-blue"/>
                </g>
            </g>
            <g id="Fenêtres-GH1" serif:id="Fenêtres GH" transform="matrix(1.11753,0,0,1,-27.7069,0.322718)">
                <g transform="matrix(5.29338e-17,-0.307861,1,2.18064e-17,-7.85603,53.7746)">
                    <path d="M7.93,45.756L20.807,45.756C22.19,45.756 23.314,45.428 23.314,45.025C23.314,44.622 22.19,44.294 20.807,44.294L7.93,44.294C6.546,44.294 5.423,44.622 5.423,45.025C5.423,45.428 6.546,45.756 7.93,45.756Z" class="sp-blue"/>
                </g>
                <g transform="matrix(5.29338e-17,-0.307861,1,2.18064e-17,-2.35603,53.7746)">
                    <path d="M7.93,45.756L20.807,45.756C22.19,45.756 23.314,45.428 23.314,45.025C23.314,44.622 22.19,44.294 20.807,44.294L7.93,44.294C6.546,44.294 5.423,44.622 5.423,45.025C5.423,45.428 6.546,45.756 7.93,45.756Z" class="sp-blue"/>
                </g>
            </g>
            <g transform="matrix(0.859697,0,0,1,4.56276,-1.02276)">
                <path d="M7.93,45.797L20.807,45.797C21.331,45.797 21.757,45.451 21.757,45.025C21.757,44.599 21.331,44.253 20.807,44.253L7.93,44.253C7.406,44.253 6.98,44.599 6.98,45.025C6.98,45.451 7.406,45.797 7.93,45.797Z" class="sp-blue"/>
            </g>
        </g>
        <g id="Socle" transform="matrix(1.64495,0,0,1,16.3297,18.7466)">
            <path d="M7.93,45.797L20.807,45.797C21.081,45.797 21.303,45.451 21.303,45.025C21.303,44.599 21.081,44.253 20.807,44.253L7.93,44.253C7.656,44.253 7.434,44.599 7.434,45.025C7.434,45.451 7.656,45.797 7.93,45.797Z" class="sp-blue"/>
        </g>
        <g id="Murs-C" serif:id="Murs C" transform="matrix(1,0,0,0.937495,-0.0615819,4.71053)">
            <g transform="matrix(5.29338e-17,-1.91825,1,1.35873e-16,-18.7945,78.2112)">
                <path d="M7.93,45.842L20.807,45.842C21.043,45.842 21.236,45.476 21.236,45.025C21.236,44.574 21.043,44.208 20.807,44.208L7.93,44.208C7.693,44.208 7.501,44.574 7.501,45.025C7.501,45.476 7.693,45.842 7.93,45.842Z" class="sp-blue"/>
            </g>
            <g transform="matrix(5.29338e-17,-1.91825,1,1.35873e-16,8.79783,78.2112)">
                <path d="M7.93,45.842L20.807,45.842C21.043,45.842 21.236,45.476 21.236,45.025C21.236,44.574 21.043,44.208 20.807,44.208L7.93,44.208C7.693,44.208 7.501,44.574 7.501,45.025C7.501,45.476 7.693,45.842 7.93,45.842Z" class="sp-blue"/>
            </g>
        </g>
        <g id="Porte-fenêtres" transform="matrix(0.816707,0,0,0.771942,6.76767,5.18185)">
            <g transform="matrix(1,0,0,1,0.647935,0.899303)">
                <path d="M27.352,71.899L32.4,71.899C32.952,71.899 33.4,71.451 33.4,70.899C33.4,70.347 32.952,69.899 32.4,69.899L27.352,69.899C26.8,69.899 26.352,70.347 26.352,70.899C26.352,71.451 26.8,71.899 27.352,71.899Z" class="sp-blue"/>
            </g>
            <g transform="matrix(1,0,0,1,20.8959,0.899303)">
                <path d="M27.352,71.899L32.4,71.899C32.952,71.899 33.4,71.451 33.4,70.899C33.4,70.347 32.952,69.899 32.4,69.899L27.352,69.899C26.8,69.899 26.352,70.347 26.352,70.899C26.352,71.451 26.8,71.899 27.352,71.899Z" class="sp-blue"/>
            </g>
            <g transform="matrix(1,0,0,0.478759,-4.34392,32.5772)">
                <path d="M36.601,56.42L36.64,71.911C36.643,73.064 37.093,73.995 37.645,73.989C38.197,73.983 38.643,73.042 38.64,71.889L38.6,56.253L38.599,56.306C38.602,56.188 38.6,56.063 38.593,55.931C38.58,55.699 38.512,54.456 37.964,53.23C37.508,52.21 36.654,51.033 34.96,51.013C32.975,50.989 32.141,52.312 31.759,53.356C31.42,54.282 31.35,55.214 31.344,55.809C31.343,55.955 31.347,56.093 31.356,56.223C31.356,56.214 31.356,71.877 31.356,71.877C31.356,73.03 31.804,73.966 32.356,73.966C32.908,73.966 33.356,73.03 33.356,71.877L33.356,56.172L32.356,58.261C32.356,58.261 33.332,55.717 33.332,55.717C33.332,55.717 33.334,55.74 33.337,55.775C33.338,55.786 33.342,55.911 33.342,55.911C33.342,55.911 33.493,55.641 33.676,55.511C33.977,55.299 34.388,55.184 34.948,55.19C36.087,55.204 36.542,56.268 36.601,56.42Z" class="sp-blue"/>
            </g>
            <g transform="matrix(1,0,0,0.734023,5.65608,19.0224)">
                <path d="M33.356,71.877L33.356,56.172C33.356,56.106 33.352,56.039 33.345,55.972C33.345,55.972 33.291,55.45 33.542,55.034C33.768,54.661 34.204,54.455 34.945,54.464C35.443,54.47 35.804,54.624 36.056,54.877C36.512,55.336 36.588,56.056 36.599,56.213C36.6,56.229 36.64,71.905 36.64,71.905C36.642,72.657 37.091,73.265 37.643,73.262C38.195,73.26 38.642,72.647 38.64,71.895L38.6,56.181C38.6,56.163 38.6,56.145 38.599,56.127C38.599,56.127 38.535,53.984 37.244,52.685C36.722,52.16 35.994,51.752 34.963,51.739C33.353,51.72 32.49,52.491 31.999,53.301C31.315,54.432 31.332,55.81 31.356,56.239C31.356,56.227 31.356,71.877 31.356,71.877C31.356,72.629 31.804,73.24 32.356,73.24C32.908,73.24 33.356,72.629 33.356,71.877Z" class="sp-blue"/>
            </g>
            <g transform="matrix(1,0,0,0.478759,15.6561,32.5772)">
                <path d="M36.601,56.42L36.64,71.911C36.643,73.064 37.093,73.995 37.645,73.989C38.197,73.983 38.643,73.042 38.64,71.889L38.6,56.253L38.599,56.306C38.602,56.188 38.6,56.063 38.593,55.931C38.58,55.699 38.512,54.456 37.964,53.23C37.508,52.21 36.654,51.033 34.96,51.013C32.975,50.989 32.141,52.312 31.759,53.356C31.42,54.282 31.35,55.214 31.344,55.809C31.343,55.955 31.347,56.093 31.356,56.223C31.356,56.214 31.356,71.877 31.356,71.877C31.356,73.03 31.804,73.966 32.356,73.966C32.908,73.966 33.356,73.03 33.356,71.877L33.356,56.172L32.356,58.261C32.356,58.261 33.332,55.717 33.332,55.717C33.332,55.717 33.334,55.74 33.337,55.775C33.338,55.786 33.342,55.911 33.342,55.911C33.342,55.911 33.493,55.641 33.676,55.511C33.977,55.299 34.388,55.184 34.948,55.19C36.087,55.204 36.542,56.268 36.601,56.42Z" class="sp-blue"/>
            </g>
        </g>
        <g transform="matrix(1.06172,0,0,1.00352,2.27409,25.0974)">
            <path d="M35.5,17C36.88,17 38,18.12 38,19.5C38,20.88 36.88,22 35.5,22C34.12,22 33,20.88 33,19.5C33,18.12 34.12,17 35.5,17ZM35.5,18.25C36.19,18.25 36.75,18.81 36.75,19.5C36.75,20.19 36.19,20.75 35.5,20.75C34.81,20.75 34.25,20.19 34.25,19.5C34.25,18.81 34.81,18.25 35.5,18.25Z" class="sp-red"/>
        </g>
        <g transform="matrix(0.816707,0,0,0.771942,7.29684,5.87606)">
            <g id="Coupole-v2" serif:id="Coupole v2">
                <path id="Coupole" d="M32.249,17.398C34.404,16.326 37.075,15.587 40,15.587C49.659,15.587 57.5,23.428 57.5,33.087C57.5,36.159 56.691,39.177 55.155,41.837C54.977,42.146 54.647,42.337 54.289,42.337L25.711,42.337C25.353,42.337 25.023,42.146 24.845,41.837C23.309,39.177 22.5,36.159 22.5,33.087C22.5,28.577 24.315,24.74 26.23,22.301C26.23,22.301 26.975,21.797 27.558,22.325C28.15,22.861 27.851,23.415 27.851,23.415C25.463,26.592 24.5,29.643 24.5,33.087C24.5,35.617 25.119,38.105 26.3,40.337L53.7,40.337L53.7,40.336C54.881,38.105 55.5,35.617 55.5,33.087C55.5,24.532 48.555,17.587 40,17.587C37.823,17.587 35.426,18.017 33.093,19.195C33.093,19.195 32.47,19.351 32.062,18.733C31.632,18.082 32.249,17.398 32.249,17.398Z" class="sp-blue"/>
            </g>
        </g>
        <g id="Toit" transform="matrix(1,0,0,1,-0.51487,3.2915)">
            <g transform="matrix(1.18013,0,0,1,3.35106,8.11629)">
                <path d="M18.259,27.15L44.665,27.15C45.047,27.15 45.357,26.804 45.357,26.378C45.357,25.952 45.047,25.606 44.665,25.606L18.259,25.606C17.877,25.606 17.567,25.952 17.567,26.378C17.567,26.804 17.877,27.15 18.259,27.15Z" class="sp-blue"/>
            </g>
            <g transform="matrix(1.17529,0,0,0.53379,-9.82717,10.6967)">
                <path d="M56.35,43.267L42.981,30.554C42.796,30.378 42.584,30.38 42.399,30.558L29.254,43.271C28.906,43.607 28.755,44.468 28.916,45.192C29.078,45.915 29.492,46.23 29.839,45.894L42.695,33.462C42.695,33.462 55.772,45.897 55.772,45.897C56.121,46.229 56.534,45.909 56.693,45.183C56.853,44.457 56.699,43.599 56.35,43.267Z" class="sp-blue"/>
            </g>
        </g>
        <g transform="matrix(0.758619,0.285923,-0.302504,0.717037,9.6506,4.6168)">
            <path d="M15.816,9.579C16.032,9.274 16.06,8.873 15.888,8.541C15.717,8.209 15.374,8 15,8C12.24,8 10,10.24 10,13C10,15.76 12.24,18 15,18C15.374,18 15.717,17.791 15.888,17.459C16.06,17.127 16.032,16.726 15.816,16.421C15.25,15.624 14.8,14.364 14.8,13C14.8,11.636 15.25,10.376 15.816,9.579ZM13.14,10.647C12.929,11.373 12.8,12.171 12.8,13C12.8,13.829 12.929,14.627 13.14,15.353C12.446,14.804 12,13.954 12,13C12,12.046 12.446,11.196 13.141,10.646L13.14,10.647Z" class="sp-red"/>
        </g>
    </g>
</svg>
