<?xml version="1.0" encoding="UTF-8" standalone="no"?>
<!DOCTYPE svg PUBLIC "-//W3C//DTD SVG 1.1//EN" "http://www.w3.org/Graphics/SVG/1.1/DTD/svg11.dtd">
<svg width="100%" height="100%" viewBox="0 0 80 80" version="1.1" xmlns="http://www.w3.org/2000/svg" xmlns:xlink="http://www.w3.org/1999/xlink" xml:space="preserve" xmlns:serif="http://www.serif.com/" style="fill-rule:evenodd;">
	<g id="env-logement-transport--CD-">
		<g id="Tram">
			<g>
				<path class="sp-blue" d="M55.52,40.91s4.24-2.23,7.94-.03c.59,.35,1.36,.16,1.71-.44,.35-.59,.16-1.36-.44-1.71-4.83-2.87-10.36-.03-10.36-.03-.61,.32-.85,1.07-.53,1.68,.32,.61,1.07,.85,1.68,.53Z"/>
				<path class="sp-blue" d="M60.9,44.97l-2.03-5.59c-.24-.65-.95-.98-1.6-.75-.65,.24-.98,.95-.75,1.6l2.03,5.59c.24,.65,.95,.98,1.6,.75,.65-.24,.98-.95,.75-1.6Z"/>
				<path class="sp-blue" d="M61.19,45.07l2.03-5.59c.24-.65-.1-1.36-.75-1.6-.65-.24-1.36,.1-1.6,.75l-2.03,5.59c-.24,.65,.1,1.36,.75,1.6,.65,.24,1.36-.1,1.6-.75Z"/>
			</g>
			<g>
				<path class="sp-blue" d="M56.6,74.09h5.55c.69,0,1.25-.56,1.25-1.25s-.56-1.25-1.25-1.25h-5.55c-.69,0-1.25,.56-1.25,1.25s.56,1.25,1.25,1.25Z"/>
				<path class="sp-blue" d="M54.95,72.13l-3.84,5.49c-.4,.56-.26,1.34,.31,1.74,.56,.4,1.34,.26,1.74-.31l3.84-5.49c.39-.56,.26-1.34-.31-1.74-.56-.4-1.34-.26-1.74,.31Z"/>
				<path class="sp-blue" d="M62.04,73.56l3.84,5.49c.39,.56,1.17,.7,1.74,.31,.56-.39,.7-1.17,.31-1.74l-3.84-5.49c-.4-.56-1.17-.7-1.74-.31-.56,.39-.7,1.17-.31,1.74Z"/>
				<path class="sp-blue" d="M54,77.75h10.75c.69,0,1.25-.56,1.25-1.25s-.56-1.25-1.25-1.25h-10.75c-.69,0-1.25,.56-1.25,1.25s.56,1.25,1.25,1.25Z"/>
			</g>
			<path class="sp-red" d="M55.57,61.86c1.77,0,3.2,1.43,3.2,3.2s-1.43,3.2-3.2,3.2-3.2-1.43-3.2-3.2,1.43-3.2,3.2-3.2Zm0,1.6c.88,0,1.6,.72,1.6,1.6s-.72,1.6-1.6,1.6-1.6-.72-1.6-1.6,.72-1.6,1.6-1.6Z"/>
			<path class="sp-red" d="M63.47,61.86c1.77,0,3.2,1.43,3.2,3.2s-1.43,3.2-3.2,3.2-3.2-1.43-3.2-3.2,1.43-3.2,3.2-3.2Zm0,1.6c.88,0,1.6,.72,1.6,1.6s-.72,1.6-1.6,1.6-1.6-.72-1.6-1.6,.72-1.6,1.6-1.6Z"/>
			<path class="sp-blue" d="M53.76,51.47c-.69,0-1.25,.56-1.25,1.25v5.95c0,.69,.56,1.25,1.25,1.25h11.51c.69,0,1.25-.56,1.25-1.25v-5.95c0-.69-.56-1.25-1.25-1.25h-11.51Zm1.25,2.5h9.02v3.45h-9.02v-3.45Z"/>
			<g>
				<path class="sp-blue" d="M65.74,45.4h-8.73c-.69,0-1.25,.56-1.25,1.25s.56,1.25,1.25,1.25h8.73s.04,0,.07,0c0,0,2.41-.15,2.43,2.17,.02,2.47,0,10.2,0,10.2,0,.69,.56,1.25,1.25,1.25,.69,0,1.25-.56,1.25-1.24,0,0,.02-7.75,0-10.22-.03-4.58-4.43-4.65-5-4.64Z"/>
				<path class="sp-blue" d="M53.29,45.4c-.57,0-4.96,.06-5,4.64-.02,2.48,0,10.22,0,10.22,0,.69,.56,1.25,1.25,1.24,.69,0,1.25-.56,1.25-1.25,0,0-.02-7.73,0-10.2,.02-2.32,2.43-2.17,2.43-2.17,.02,0,.05,0,.07,0h8.73c.69,0,1.25-.56,1.25-1.25s-.56-1.25-1.25-1.25h-8.73Z"/>
				<path class="sp-blue" d="M53.29,72.85h8.73c.69,0,1.25-.56,1.25-1.25s-.56-1.25-1.25-1.25h-8.73s-.04,0-.07,0c0,0-2.41,.15-2.43-2.17-.02-2.47,0-10.2,0-10.2,0-.69-.56-1.25-1.25-1.25-.69,0-1.25,.56-1.25,1.24,0,0-.02,7.75,0,10.22,.03,4.58,4.43,4.65,5,4.64Z"/>
				<path class="sp-blue" d="M65.74,45.4h-8.73c-.69,0-1.25,.56-1.25,1.25s.56,1.25,1.25,1.25h8.73s.04,0,.07,0c0,0,2.41-.15,2.43,2.17,.02,2.47,0,10.2,0,10.2,0,.69,.56,1.25,1.25,1.25,.69,0,1.25-.56,1.25-1.24,0,0,.02-7.75,0-10.22-.03-4.58-4.43-4.65-5-4.64Z"/>
				<path class="sp-blue" d="M65.74,45.4h-8.73c-.69,0-1.25,.56-1.25,1.25s.56,1.25,1.25,1.25h8.73s.04,0,.07,0c0,0,2.41-.15,2.43,2.17,.02,2.47,0,10.2,0,10.2,0,.69,.56,1.25,1.25,1.25,.69,0,1.25-.56,1.25-1.25,0,0,0-7.74,0-10.22-.03-4.58-4.43-4.65-5-4.64Z"/>
				<path class="sp-blue" d="M65.74,45.4h-8.73c-.69,0-1.25,.56-1.25,1.25s.56,1.25,1.25,1.25h8.73s.04,0,.07,0c0,0,2.41-.15,2.43,2.17,.02,2.47,0,10.2,0,10.2,0,.69,.56,1.25,1.25,1.25,.69,0,1.25-.56,1.25-1.25,0,0,0-7.74,0-10.22-.03-4.58-4.43-4.65-5-4.64Z"/>
				<path class="sp-blue" d="M65.74,72.85c.57,0,4.96-.06,5-4.64,.02-2.48,0-10.22,0-10.22,0-.69-.56-1.25-1.25-1.25-.69,0-1.25,.56-1.25,1.25,0,0,0,7.73,0,10.2-.02,2.32-2.43,2.17-2.43,2.17-.02,0-.05,0-.07,0h-8.73c-.69,0-1.25,.56-1.25,1.25s.56,1.25,1.25,1.25h8.73Z"/>
			</g>
		</g>
		<g id="Arbres">
			<g id="Arbre-3">
				<path class="sp-blue" d="M20.89,79.58h0s0,0,0,0c.26,0,.53-.08,.76-.25,.53-.4,.65-1.15,.27-1.7-.03-.06-1.41-3.27-.62-12.62,.06-.69-.45-1.29-1.14-1.35-.69-.06-1.29,.45-1.35,1.14-1,11.82,1.09,14.29,1.09,14.29,.25,.32,.62,.49,.99,.49Zm1-1.99l.02,.02-.02-.02h0Z"/>
				<path class="sp-blue" d="M13.88,79.27s2.98-2.44,3.77-14.28c.05-.69-.47-1.28-1.16-1.33-.69-.05-1.28,.47-1.33,1.16-.69,10.36-2.94,12.58-2.94,12.58-.51,.46-.56,1.25-.1,1.76,.46,.51,1.25,.56,1.76,.1Z"/>
				<path class="sp-blue" d="M21.86,65.09s.92,1.72,3.12,2.19c1.2,.26,2.85,.15,4.98-1.05,1.99,.32,3.13-.16,3.81-.73,.73-.62,.99-1.44,1.08-2.05,1.34-.96,4.23-3.65,2.29-8.13-.27-.63-1.01-.92-1.64-.65-.63,.27-.92,1.01-.65,1.64,1.54,3.56-1.79,5.32-1.79,5.32-.46,.24-.72,.74-.66,1.26,0,0,.07,.43-.25,.7-.36,.31-1.02,.35-2.17,.1-.31-.07-.64,0-.91,.16-1.56,.96-2.72,1.17-3.57,.99-1.01-.21-1.46-.96-1.46-.96-.33-.6-1.1-.82-1.7-.48-.6,.33-.82,1.1-.48,1.7Z"/>
				<path class="sp-blue" d="M35.99,57.06c.29,0,.58-.1,.81-.3,0,0,1.13-.96,.86-2.45-.16-.89-.95-2.27-3.92-3.54-.09-.69-.37-1.59-1.17-2.26-.71-.59-1.9-1.07-3.93-.82-.49-1.16-1.58-2.76-3.94-3.12-.4-.58-1.13-1.4-2.18-1.77-.98-.35-2.29-.39-3.9,.62-.86-.44-2.28-.86-3.82-.05-.85-.59-2.25-1.28-3.79-.9-.9,.22-1.88,.79-2.81,2.03-.56,.05-1.33,.22-2.13,.72-.88,.55-1.83,1.51-2.5,3.26-.36,.46-1.25,1.68-1.63,3.09-.26,.96-.29,1.99,.12,2.97-.58,.41-1.21,1.01-1.61,1.84-.56,1.16-.75,2.79,.48,4.99,.05,.43,.17,1.22,.5,1.97,.4,.9,1.09,1.72,2.13,2.05,.78,.25,1.84,.25,3.24-.39,.42,.46,1.04,.95,1.89,1.21,1.14,.35,2.77,.35,4.98-.92,.6-.34,.8-1.11,.46-1.7-.34-.6-1.11-.8-1.7-.46-1.35,.77-2.31,.92-3,.7-.79-.25-1.1-.94-1.1-.94-.14-.34-.42-.6-.77-.71-.35-.11-.73-.06-1.04,.13-1.01,.63-1.68,.87-2.19,.7-.33-.11-.49-.41-.62-.69-.29-.66-.32-1.38-.32-1.38,0-.21-.07-.42-.18-.6-.6-1-.79-1.79-.67-2.42,.24-1.31,1.68-1.76,1.68-1.76,.4-.14,.71-.47,.81-.88,.1-.41-.02-.85-.31-1.16-.73-.76-.5-1.72-.18-2.48,.41-.98,1.05-1.71,1.05-1.71,.1-.12,.19-.26,.24-.41,.96-2.7,2.82-2.54,2.82-2.54,.5,.08,.99-.15,1.25-.57,.57-.91,1.13-1.38,1.69-1.52,1.21-.3,2.21,.87,2.21,.87,.45,.49,1.2,.53,1.71,.11,1.19-.98,2.31-.02,2.31-.02,.45,.39,1.12,.41,1.59,.04,.97-.76,1.7-.94,2.26-.74,.78,.28,1.13,1.11,1.13,1.11,.19,.43,.61,.72,1.08,.74,2.31,.11,2.64,2.29,2.64,2.29,.05,.34,.24,.65,.53,.85,.29,.2,.64,.27,.98,.19,1.58-.35,2.46-.29,2.93,.11,.44,.37,.31,.97,.31,.97-.1,.59,.23,1.17,.79,1.38,.54,.2,1,.4,1.39,.6,.33,.17,.62,.33,.86,.49,.19,.13,.36,.25,.49,.37,.42,.38,.33,.65,.33,.65l.85,2.16Zm0,0h0s0,0,0,0h0c-1.33-1.75-1.39-.96-.95-.43,.25,.29,.6,.43,.95,.43Z"/>
			</g>
			<path class="sp-blue" d="M19.64,40.24s-.22-.53,.08-.98c.16-.23,.45-.41,.9-.54,.61-.18,.98-.79,.87-1.41,0,0-.07-.28,.13-.45,.32-.26,.9-.25,1.95-.02,.34,.08,.69,0,.98-.19,.29-.2,.48-.51,.53-.85,0,0,.22-1.39,1.7-1.46,.47-.02,.89-.31,1.08-.74,0,0,.25-.67,.86-.71,.34-.02,.74,.16,1.24,.55,.47,.37,1.14,.35,1.59-.04,0,0,.66-.55,1.35,.02,.22,.18,.5,.29,.79,.29,0,0,.46,.08,.91-.39,.03-.03,.22-.21,.49-.37,.23-.14,.54-.29,.89-.2,.37,.09,.72,.42,1.09,1.01,.23,.36,.63,.59,1.06,.59,0,0,.06,0,.16-.01,.22-.02,1.25,.1,1.83,1.72,.05,.15,.13,.29,.24,.41,0,0,.45,.52,.74,1.2,.2,.47,.38,1.07-.07,1.54-.29,.31-.41,.74-.31,1.16,.1,.41,.41,.75,.81,.88,0,0,.92,.27,1.07,1.09,.08,.42-.07,.94-.47,1.62l1.07,1.89-1.25-1.29s-.02,.38-.13,.72c-.07,.21-.12,.49-.36,.56-.33,.11-.75-.09-1.4-.5-.31-.2-.69-.24-1.04-.13-.35,.11-.63,.37-.77,.71,0,0-.18,.39-.64,.54-.47,.15-1.11,.02-2.02-.5-.6-.34-1.36-.14-1.7,.46-.34,.6-.14,1.36,.46,1.7,1.78,1.02,3.09,1.01,4,.72,.61-.19,1.07-.51,1.41-.84,1.05,.44,1.86,.42,2.47,.22,.88-.28,1.46-.96,1.8-1.72,.25-.56,.35-1.16,.4-1.52,.96-1.75,.79-3.06,.34-3.99-.28-.58-.71-1.03-1.12-1.36,.25-.73,.21-1.5,.02-2.21-.29-1.07-.95-2.01-1.26-2.41-.54-1.38-1.3-2.13-2-2.57-.59-.37-1.17-.52-1.61-.57-.73-.94-1.51-1.37-2.21-1.54-1.17-.29-2.25,.18-2.95,.63-1.13-.53-2.16-.28-2.85,.04-1.26-.74-2.29-.68-3.06-.41-.8,.28-1.37,.88-1.72,1.35-1.7,.3-2.56,1.41-2.99,2.31-1.52-.14-2.43,.26-2.98,.71-.61,.51-.86,1.16-.96,1.72-.67,.34-1.11,.77-1.41,1.21-1.01,1.5-.33,3.28-.33,3.28,.25,.64,.97,.96,1.61,.71,.64-.25,.96-.97,.71-1.61Z"/>
			<g id="Arbre-1">
				<path class="sp-red" d="M3.57,44.42c-.19,0-.37-.04-.55-.12-.21-.1-2.07-1.01-2.6-3-.3-1.12-.12-2.29,.54-3.49-.34-.92-.7-2.5,.1-3.86,.48-.82,1.27-1.38,2.35-1.67-.37-1.03-.57-2.32,.02-3.46,.64-1.23,1.98-1.9,3.98-2,.83-.55,2.84-1.65,4.65-.91,1.02,.42,1.73,1.3,2.13,2.61,.51,0,1.11,.1,1.75,.38,1.49,.65,2.64,2.04,3.44,4.15,.26,.68-.09,1.45-.77,1.71-.69,.26-1.45-.09-1.71-.77-.53-1.39-1.22-2.31-2.02-2.66-.66-.29-1.23-.1-1.23-.09-.38,.16-.81,.13-1.17-.08-.36-.21-.6-.57-.65-.98-.13-1-.42-1.67-.79-1.82-.61-.25-1.88,.42-2.39,.82-.23,.18-.51,.28-.8,.28-1.11,0-1.89,.23-2.08,.59-.28,.53,.26,1.86,.74,2.57,.27,.4,.3,.93,.08,1.36-.23,.43-.67,.71-1.16,.71-1.1,0-1.86,.23-2.1,.61-.31,.51,.06,1.58,.28,1.99,.23,.44,.2,.97-.08,1.38-.52,.75-.71,1.4-.57,1.93,.18,.68,.91,1.18,1.18,1.31,.65,.32,.93,1.11,.62,1.76-.23,.48-.7,.76-1.19,.76Z"/>
			</g>
		</g>
		<g id="Maison">
			<g id="Fenêtre">
				<path class="sp-red" d="M69.78,14.97c0-.69-.56-1.25-1.25-1.25h-9.98c-.69,0-1.25,.56-1.25,1.25v9.98c0,.69,.56,1.25,1.25,1.25h9.98c.69,0,1.25-.56,1.25-1.25V14.97Zm-2.5,1.25v7.49h-7.49v-7.49h7.49Z"/>
				<path class="sp-red" d="M62.3,15.68v8.56c0,.69,.56,1.25,1.25,1.25s1.25-.56,1.25-1.25V15.68c0-.69-.56-1.25-1.25-1.25s-1.25,.56-1.25,1.25Z"/>
				<path class="sp-red" d="M59.26,21.21h8.56c.69,0,1.25-.56,1.25-1.25s-.56-1.25-1.25-1.25h-8.56c-.69,0-1.25,.56-1.25,1.25s.56,1.25,1.25,1.25Z"/>
			</g>
			<g id="Porte">
				<path class="sp-blue" d="M41.35,26.95v-1.89h4.99v7.38c0,.69,.56,1.25,1.25,1.25s1.25-.56,1.25-1.25v-8.63c0-.69-.56-1.25-1.25-1.25h-7.49c-.69,0-1.25,.56-1.25,1.25v3.14c0,.69,.56,1.25,1.25,1.25s1.25-.56,1.25-1.25Z"/>
				<path class="sp-blue" d="M38.64,19.96h10.41c.69,0,1.25-.56,1.25-1.25s-.56-1.25-1.25-1.25h-10.41c-.69,0-1.25,.56-1.25,1.25s.56,1.25,1.25,1.25Z"/>
			</g>
			<path class="sp-blue" d="M72.54,11.77v23.16c0,.69,.56,1.25,1.25,1.25s1.25-.56,1.25-1.25V11.77c0-.69-.56-1.25-1.25-1.25s-1.25,.56-1.25,1.25Z"/>
			<path class="sp-blue" d="M27.62,18.72v8.19c0,.69,.56,1.25,1.25,1.25s1.25-.56,1.25-1.25v-8.19c0-.69-.56-1.25-1.25-1.25s-1.25,.56-1.25,1.25Z"/>
			<path class="sp-blue" d="M25.06,17.22L61.02,2.61l15.73,7.26c.63,.29,1.37,.01,1.66-.61,.29-.63,.01-1.37-.61-1.66L61.57,.11c-.31-.14-.67-.15-.99-.02L24.12,14.91c-.64,.26-.95,.99-.69,1.62,.26,.64,.99,.95,1.63,.69Z"/>
			<g id="Cheminée">
				<path class="sp-blue" d="M31.1,1.25v7.41c0,.69,.56,1.25,1.25,1.25s1.25-.56,1.25-1.25V1.25C33.6,.56,33.04,0,32.35,0s-1.25,.56-1.25,1.25Z"/>
				<path class="sp-blue" d="M34.85,3.7v3.58c0,.69,.56,1.25,1.25,1.25s1.25-.56,1.25-1.25V3.7c0-.69-.56-1.25-1.25-1.25s-1.25,.56-1.25,1.25Z"/>
			</g>
		</g>
	</g>
</svg>