<?xml version="1.0" encoding="utf-8"?>
<!-- Generator: Adobe Illustrator 27.3.1, SVG Export Plug-In . SVG Version: 6.00 Build 0)  -->
<svg version="1.1" xmlns="http://www.w3.org/2000/svg" xmlns:xlink="http://www.w3.org/1999/xlink" x="0px" y="0px"
	 viewBox="0 0 80 80" style="enable-background:new 0 0 80 80;" xml:space="preserve">
	<path class="sp-blue" d="M55,26.7c-1.2,0-2.4-0.5-3.3-1.3c-0.9-0.9-1.3-2-1.3-3.3c0,0,0,0,0,0c0-1.2,0.5-2.4,1.3-3.3
		c0.9-0.9,2-1.3,3.3-1.4c1.2,0,2.4,0.5,3.3,1.3c0.9,0.9,1.3,2,1.3,3.3c0,1.2-0.5,2.4-1.3,3.3C57.4,26.3,56.2,26.7,55,26.7z
		 M52.4,22.1c0,0.7,0.3,1.3,0.8,1.8c1,1,2.7,1,3.7,0c0.5-0.5,0.8-1.1,0.8-1.8s-0.3-1.4-0.8-1.8c-1-1-2.7-1-3.7,0
		C52.7,20.8,52.4,21.4,52.4,22.1z"/>
	<path class="sp-blue" d="M29.2,58.8c-0.2,0-0.4,0-0.6-0.1c-1-0.2-1.9-0.9-2.2-1.9c-0.3-1-0.1-2.1,0.6-2.9l13.7-16.2l5.1-8l-1.2-0.6
		L40.2,33c-0.4,0.4-1,0.3-1.4-0.1c-0.4-0.4-0.3-1,0.1-1.4l4.9-4.3c0.3-0.3,0.7-0.3,1.1-0.1l2.8,1.4c0.3,0.1,0.4,0.4,0.5,0.6
		s0,0.6-0.1,0.8l-5.7,8.9c0,0-0.1,0.1-0.1,0.1L28.5,55.2c-0.2,0.3-0.3,0.6-0.2,1c0.1,0.3,0.4,0.6,0.7,0.6c0.3,0.1,0.7-0.1,0.9-0.3
		l13.2-15.2c0.2-0.3,0.6-0.4,1-0.3l4.9,1.1c0.3,0.1,0.6,0.3,0.7,0.6c0.1,0.3,0.1,0.6-0.1,0.9l-3.6,5.7c-0.1,0.2-0.2,0.5-0.1,0.7
		c0.1,0.2,0.2,0.5,0.4,0.6c0.2,0.1,0.5,0.2,0.7,0.1c0.2-0.1,0.5-0.2,0.6-0.4l5.1-8c0.2-0.3,0.2-0.6,0.1-0.9
		c-0.1-0.3-0.4-0.5-0.7-0.6l-3.8-0.9c-0.3-0.1-0.6-0.3-0.7-0.6s-0.1-0.6,0.1-0.9l3.3-5.2c0.2-0.3,0.5-0.5,0.8-0.5c0,0,0,0,0,0
		c0.3,0,0.7,0.2,0.8,0.5l2.2,3.3c0.1,0.1,0.2,0.2,0.4,0.3c0.2,0,0.3,0,0.5-0.1l5.7-3.4c0.1-0.1,0.3-0.3,0.3-0.5
		c0-0.2-0.1-0.4-0.3-0.5c-0.2-0.1-0.4-0.1-0.6,0l-4.3,2.5c-0.2,0.1-0.5,0.2-0.8,0.1c-0.3-0.1-0.5-0.3-0.6-0.5l-2-3.9
		c-0.6-0.6-1.2-1.2-1.9-1.7l-6.7-3.3c-0.1-0.1-0.2-0.1-0.4-0.1c-0.1,0-0.2,0.1-0.3,0.2l-5.7,5.1c-0.4,0.4-1,0.3-1.4-0.1
		c-0.4-0.4-0.3-1,0.1-1.4l5.7-5.1c0.4-0.4,0.9-0.6,1.4-0.6c0.5-0.1,1.1,0,1.5,0.3l6.8,3.4c0.1,0,0.1,0.1,0.2,0.1
		c0.8,0.6,1.6,1.3,2.3,2c0.1,0.1,0.1,0.1,0.1,0.2c0,0,0,0.1,0.1,0.1l1.6,3.1l3.4-2c0.8-0.5,1.8-0.4,2.6,0c0.8,0.5,1.3,1.3,1.3,2.2
		c0,0.9-0.4,1.8-1.2,2.3l-5.7,3.4c-0.6,0.4-1.3,0.5-1.9,0.3c-0.7-0.2-1.2-0.6-1.6-1.1l-1.3-2l-1.7,2.7l2.5,0.6
		c0.9,0.2,1.7,0.9,2.1,1.8c0.4,0.9,0.3,1.9-0.2,2.7l-5.1,8c-0.4,0.7-1.1,1.1-1.9,1.3c-0.8,0.2-1.6,0-2.2-0.4
		c-0.7-0.4-1.1-1.1-1.3-1.9c-0.2-0.8,0-1.6,0.4-2.2l2.8-4.5L44.3,43L31.5,57.8C30.9,58.5,30.1,58.8,29.2,58.8z"/>
	<path class="sp-blue" d="M38.5,33.7c-0.1,0-0.1,0-0.2,0c-0.7,0-1.3-0.4-1.8-0.9c-0.5-0.5-0.7-1.2-0.7-1.9c0-0.7,0.4-1.4,0.9-1.8
		c0.4-0.4,1-0.3,1.4,0.1c0.4,0.4,0.3,1-0.1,1.4c-0.1,0.1-0.2,0.3-0.2,0.4c0,0.2,0,0.3,0.2,0.4c0.1,0.1,0.3,0.2,0.4,0.2
		c0.2,0,0.3,0,0.5-0.2c0.4-0.4,1-0.3,1.4,0.1c0.4,0.4,0.3,1-0.1,1.4C39.8,33.5,39.1,33.7,38.5,33.7z"/>
		<path class="sp-red" d="M35,38.4h-7.2c-0.6,0-1-0.4-1-1s0.4-1,1-1H35c0.6,0,1,0.4,1,1S35.6,38.4,35,38.4z"/>
		<path class="sp-red" d="M32,43H21.1c-0.6,0-1-0.4-1-1s0.4-1,1-1H32c0.6,0,1,0.4,1,1S32.5,43,32,43z"/>
		<path class="sp-red" d="M28.6,47.9H17.8c-0.6,0-1-0.4-1-1s0.4-1,1-1h10.8c0.6,0,1,0.4,1,1S29.2,47.9,28.6,47.9z"/>
	<path class="sp-red" d="M58.8,58.7c-0.4,0-0.8-0.3-1-0.7c-0.2-0.5,0.2-1.1,0.7-1.2l12.3-3.5c0.5-0.2,1.1,0.2,1.2,0.7
		c0.2,0.5-0.2,1.1-0.7,1.2l-12.3,3.5C59,58.7,58.9,58.7,58.8,58.7z"/>
	<path class="sp-blue" d="M55.4,72.7c-0.4,0-0.9-0.1-1.3-0.2c-1.5-0.4-2.8-1.5-3.4-3c-0.4-0.9-0.5-1.9-0.3-2.9c0.2-1,0.7-1.9,1.4-2.6
		c1.3-1.3,2.9-1.8,4.7-1.4v-9.7c0-0.3,0-1.3,1.1-1.6c3.2-0.9,6.4-1.8,9.6-2.7l3.8-1.1c0.1,0,0.2,0,0.3-0.1l0.1,0
		c0.3-0.1,0.6,0,0.8,0.2c0.2,0.2,0.4,0.4,0.4,0.7l0,0.1c0,0.1,0,0.2,0,0.3l0,5.1c0,3.4,0,6.8,0,10.2c0,1.3-0.5,2.6-1.5,3.5
		c-1,1-2.4,1.5-3.8,1.4c-1.5-0.1-2.9-0.8-3.8-1.9c-0.9-1.2-1.3-2.7-0.9-4.1c0.3-1.5,1.2-2.7,2.5-3.4c1.3-0.7,2.9-0.8,4.2-0.2
		l0.6,0.3c0.3,0.1,0.5,0.4,0.6,0.6c0-2.1,0-4.3,0-6.4l0-4.2l-2.9,0.8c-3.1,0.9-6.2,1.8-9.2,2.6v10.9c0,0.3-0.2,0.6-0.4,0.8
		c-0.3,0.2-0.6,0.2-0.9,0.1L56.9,65c-0.1-0.1-0.2-0.1-0.4-0.2c-1.3-0.4-2.3-0.2-3.3,0.7c-0.4,0.4-0.7,0.9-0.8,1.5
		c-0.1,0.6-0.1,1.2,0.2,1.7c0.4,0.9,1.1,1.5,2,1.8c0.9,0.2,1.9,0,2.6-0.5c0.7-0.6,1.2-1.5,1.2-2.4c0-0.6,0.4-1,1-1c0,0,0,0,0,0
		c0.5,0,1,0.4,1,1c0,1.6-0.7,3.1-1.9,4C57.7,72.3,56.5,72.7,55.4,72.7z M67.7,61.1c-0.5,0-1,0.1-1.4,0.4c-0.8,0.4-1.3,1.2-1.5,2
		c-0.2,0.9,0,1.8,0.6,2.5c0.5,0.7,1.4,1.1,2.3,1.2c0.9,0,1.7-0.3,2.3-0.9c0.6-0.6,0.9-1.3,0.9-2.1c0-1.1,0-2.2,0-3.3
		c0,0,0,0.1,0,0.1c-0.2,0.5-0.8,0.7-1.3,0.5l-0.6-0.3C68.4,61.2,68,61.1,67.7,61.1z"/>
	<path class="sp-blue" d="M19,33.2C18.9,33.2,18.9,33.2,19,33.2c-3.8-0.2-6.8-1.5-8.8-3.8c-3.3-3.8-2.9-9-2.9-9.2l1-10.5
		c0.1-1.1,0.5-1.8,1.2-2.2c0.6-0.3,1.3-0.2,1.7,0c6.5,1.8,19.7,2,19.9,2c0.7,0,1.3,0.3,1.6,0.8c0.6,0.8,0.4,1.9,0.2,2.3l-0.9,8.7
		c-0.1,0.5-0.5,1-1.1,0.9c-0.5-0.1-1-0.5-0.9-1.1l0.9-8.8c0-0.1,0-0.1,0-0.2c0.1-0.2,0.1-0.4,0.1-0.5c-1.3,0-13.9-0.2-20.5-2.1
		c-0.1,0-0.1,0-0.2-0.1c0,0.1-0.1,0.3-0.1,0.6l-1,10.5c0,0-0.3,4.6,2.4,7.7c1.7,1.9,4.1,2.9,7.3,3.1c0.6,0,1,0.5,0.9,1
		C19.9,32.8,19.5,33.2,19,33.2z M10.4,9.3L10.4,9.3L10.4,9.3z"/>
	<path class="sp-blue" d="M17.4,19.5C17.4,19.5,17.4,19.5,17.4,19.5c-0.6,0-1-0.5-1-1c0-0.2,0-1.9-1.4-2c-1.5-0.2-1.8,1.7-1.8,1.7
		c-0.1,0.5-0.6,0.9-1.2,0.8c-0.5-0.1-0.9-0.6-0.8-1.2c0.2-1.3,1.3-3.6,4-3.4c2.6,0.3,3.2,2.8,3.1,4.1C18.4,19.1,18,19.5,17.4,19.5z
		"/>
	<path class="sp-blue" d="M27.2,20.5C27.2,20.5,27.2,20.5,27.2,20.5c-0.6,0-1-0.5-1-1c0-0.2,0-1.9-1.4-2c-1.4-0.1-1.8,1.5-1.8,1.7
		c-0.1,0.5-0.6,0.9-1.2,0.8c-0.5-0.1-0.9-0.6-0.8-1.2c0.2-1.3,1.3-3.6,4-3.4c2.6,0.3,3.2,2.8,3.1,4.1
		C28.2,20.1,27.8,20.5,27.2,20.5z"/>
	<path class="sp-blue" d="M19.5,28.9c-0.2,0-0.4,0-0.6,0c-3.7-0.4-4.8-3.8-4.9-3.9c-0.2-0.5,0.1-1.1,0.6-1.3c0.5-0.2,1.1,0.1,1.3,0.6
		c0,0.1,0.8,2.3,3.2,2.6c2.3,0.2,3.4-1.8,3.5-1.9c0.3-0.5,0.9-0.7,1.4-0.4c0.5,0.3,0.7,0.9,0.4,1.3C24.3,26.1,22.8,28.9,19.5,28.9z
		"/>
	<path class="sp-red" d="M23,33.9c0.8,0,1.4-0.6,1.4-1.4c0-0.8-0.6-1.4-1.4-1.4s-1.4,0.6-1.4,1.4C21.6,33.3,22.2,33.9,23,33.9z"/>
</svg>
