<?xml version="1.0" encoding="utf-8"?>
<!-- Generator: Adobe Illustrator 27.3.1, SVG Export Plug-In . SVG Version: 6.00 Build 0)  -->
<svg version="1.1" xmlns="http://www.w3.org/2000/svg" xmlns:xlink="http://www.w3.org/1999/xlink" x="0px" y="0px"
	 viewBox="0 0 80 80" style="enable-background:new 0 0 80 80;" xml:space="preserve">
	<path class="sp-blue" d="M54.4,39.1c-4.2,0-7.6-3.4-7.6-7.6s3.4-7.6,7.6-7.6c4.2,0,7.6,3.4,7.6,7.6S58.6,39.1,54.4,39.1z M54.4,25.9
			c-3.1,0-5.6,2.5-5.6,5.6c0,3.1,2.5,5.6,5.6,5.6c3.1,0,5.6-2.5,5.6-5.6C60,28.4,57.5,25.9,54.4,25.9z"/>
	<path class="sp-blue" d="M54.1,53.7h-5.1c-1,0-1.7-0.8-1.7-1.7v-2.7c0-0.6,0.4-1,1-1s1,0.4,1,1v2.5h4.8c0.6,0,1,0.4,1,1
		S54.7,53.7,54.1,53.7z"/>
	<path class="sp-blue" d="M52.5,59.4h-6c-2.8,0-5-2.2-5-5v-5.6c0-4.4,3.6-8,8-8h9.6c2,0,4,0.8,5.5,2.2c0.4,0.4,0.4,1,0,1.4
		c-0.4,0.4-1,0.4-1.4,0c-1.1-1-2.6-1.6-4.1-1.6h-9.6c-3.3,0-6,2.7-6,6v5.6c0,1.7,1.4,3,3,3h6c0.6,0,1,0.4,1,1S53.1,59.4,52.5,59.4z
		"/>
	<path class="sp-blue" d="M51.3,63.9h-7.6c-0.6,0-1-0.4-1-1s0.4-1,1-1h7.6c0.6,0,1,0.4,1,1S51.8,63.9,51.3,63.9z"/>
	<path class="sp-blue" d="M25.6,29.2c-4.2,0-7.6-3.4-7.6-7.6s3.4-7.6,7.6-7.6c4.2,0,7.6,3.4,7.6,7.6S29.8,29.2,25.6,29.2z M25.6,16.1
			c-3.1,0-5.6,2.5-5.6,5.6c0,3.1,2.5,5.6,5.6,5.6c3.1,0,5.6-2.5,5.6-5.6C31.2,18.6,28.7,16.1,25.6,16.1z"/>
	<path class="sp-blue" d="M30.9,43.8h-5.1c-0.6,0-1-0.4-1-1s0.4-1,1-1h4.8v-2.5c0-0.6,0.4-1,1-1s1,0.4,1,1v2.7
		C32.7,43,31.9,43.8,30.9,43.8z"/>
	<path class="sp-blue" d="M33.4,49.6h-6c-0.6,0-1-0.4-1-1s0.4-1,1-1h6c1.7,0,3-1.4,3-3V39c0-3.3-2.7-6-6-6h-9.6c-1.5,0-3,0.6-4.1,1.6
		c-0.4,0.4-1,0.4-1.4,0c-0.4-0.4-0.4-1,0-1.4c1.5-1.4,3.4-2.2,5.5-2.2h9.6c4.4,0,8,3.6,8,8v5.6C38.4,47.3,36.2,49.6,33.4,49.6z"/>
	<path class="sp-blue" d="M36.4,54.1h-7.6c-0.6,0-1-0.4-1-1s0.4-1,1-1h7.6c0.6,0,1,0.4,1,1S36.9,54.1,36.4,54.1z"/>
	<path class="sp-red" d="M28.7,54.1H9.4c-0.4,0-0.8-0.3-1-0.7L4.1,38.3c-0.1-0.3,0-0.6,0.2-0.9C4.5,37.2,4.8,37,5.1,37h19.4
		c0.4,0,0.8,0.3,1,0.7l4.3,15.1c0.1,0.3,0,0.6-0.2,0.9S29.1,54.1,28.7,54.1z M10.1,52.1h17.3L23.7,39H6.4L10.1,52.1z"/>
	<path class="sp-red" d="M70.6,63.9H51.3c-0.3,0-0.6-0.1-0.8-0.4c-0.2-0.2-0.2-0.6-0.2-0.9l4.3-15.1c0.1-0.4,0.5-0.7,1-0.7h19.4
		c0.3,0,0.6,0.1,0.8,0.4c0.2,0.2,0.2,0.6,0.2,0.9l-4.3,15.1C71.5,63.6,71.1,63.9,70.6,63.9z M52.6,61.9h17.3l3.7-13.1H56.3
		L52.6,61.9z"/>
</svg>
