<?xml version="1.0" encoding="utf-8"?>
<!-- Generator: Adobe Illustrator 27.3.1, SVG Export Plug-In . SVG Version: 6.00 Build 0)  -->
<svg version="1.1" xmlns="http://www.w3.org/2000/svg" xmlns:xlink="http://www.w3.org/1999/xlink" x="0px" y="0px"
	 viewBox="0 0 80 80" style="enable-background:new 0 0 80 80;" xml:space="preserve">
	<path class="sp-blue" d="M40.5,20.9h5.8c0.8,0,1.5,0.3,2.1,0.9c0.9,0.9,2.1,1.4,3.5,1.4h5.4c0.5,0,0.9-0.4,0.9-0.9
		c0-0.5-0.4-0.9-0.9-0.9h-5.4c-0.8,0-1.5-0.3-2.1-0.9c-0.9-0.9-2.1-1.4-3.5-1.4h-5.8c-3.2,0-5.8,2.6-5.8,5.8v3.4
		c0,3.1,2.5,5.7,5.7,5.7l2.4,0.1c1.5,0,2.7,1.3,2.7,2.7v4.8c0,0.5,0.4,0.9,0.9,0.9c0.5,0,0.9-0.4,0.9-0.9v-4.8
		c0-2.5-2.1-4.7-4.6-4.7l-2.4-0.1c-2.1-0.1-3.8-1.8-3.8-3.9v-3.4C36.6,22.7,38.4,20.9,40.5,20.9z"/>
	<path class="sp-blue" d="M35.6,58.5c-2.1-0.3-4.1-0.8-6.3-1.7c-9.8-4.1-15.6-13.9-15.1-24h2.3c1.7,0,3.5,0.6,4.8,1.7
		c3,2.5,3.5,6.9,1.3,10.1l-1.1,1.6c-0.3,0.4-0.2,1,0.2,1.3c0.1,0.1,0.3,0.2,0.5,0.2c0.3,0,0.6-0.1,0.8-0.4l1.1-1.6
		c2.8-3.9,2.1-9.5-1.6-12.7c-1.7-1.4-3.9-2.2-6.1-2.2h-2.2c0.3-2.3,0.9-4.5,1.8-6.7c2.6-6.1,7.4-10.9,13.5-13.3
		c4.7-1.9,9.8-2.3,14.7-1.3v0.6c0,0.5-0.4,1-1,1c-1.6,0-2.9,1.3-2.9,2.9v0.8c0,1.6,1.3,2.9,2.9,2.9h0.5c0.7,0,1.5-0.3,2-0.8
		l2.4-2.4c0.2-0.1,0.5-0.1,0.8,0.1l3.6,3.6c0.2,0.2,0.4,0.3,0.7,0.3c0.3,0,0.5-0.1,0.7-0.3c0.4-0.4,0.4-1,0-1.3l-3.6-3.6
		c-0.9-0.9-2.3-1-3.3-0.2c-0.1,0-0.1,0.1-0.1,0.1l-2.5,2.5C44.2,15.9,44,16,43.7,16h-0.5c-0.5,0-1-0.5-1-1v-0.8c0-0.5,0.4-1,1-1
		c1.6,0,2.9-1.3,2.9-2.9v-0.1c0.8,0.3,1.6,0.5,2.4,0.9c9.8,4,15.9,13.7,15.3,24.1c0,0.5,0.4,0.9,0.9,1c0.5,0,0.9-0.4,1-0.9
		c0.6-11.2-5.9-21.7-16.3-26C42.8,6.5,35.6,6.5,29,9.1c-6.6,2.7-11.8,7.8-14.5,14.4c-5.7,13.6,0.7,29.3,14.2,35
		c2.3,1,4.5,1.6,6.8,1.9c0.1,0,0.1,0,0.1,0c0.5,0,0.9-0.3,0.9-0.8C36.6,59.1,36.2,58.6,35.6,58.5z"/>
	<path class="sp-blue" d="M62.7,73.8H45.3c-2.2,0-4-1.8-4-4V45.7c0-2.2,1.8-4,4-4h17.4c2.2,0,4,1.8,4,4v24.1
		C66.7,72,64.9,73.8,62.7,73.8z M45.3,43.7c-1.1,0-2,0.9-2,2v24.1c0,1.1,0.9,2,2,2h17.4c1.1,0,2-0.9,2-2V45.7c0-1.1-0.9-2-2-2
		H45.3z"/>
	<path class="sp-blue" d="M44.3,43.9c-0.4,0-0.8-0.3-0.9-0.7c-0.2-0.5,0.1-1.1,0.6-1.3l13.4-4.6c1-0.3,2.1-0.2,3,0.4
		c0.9,0.6,1.4,1.6,1.4,2.7v2.2c0,0.6-0.4,1-1,1s-1-0.4-1-1v-2.2c0-0.4-0.2-0.8-0.6-1.1s-0.8-0.3-1.2-0.2l-13.4,4.6
		C44.5,43.9,44.4,43.9,44.3,43.9z"/>
	<path class="sp-red" d="M54,61.3c-4.2,0-7.6-3.4-7.6-7.6s3.4-7.6,7.6-7.6s7.6,3.4,7.6,7.6S58.1,61.3,54,61.3z M54,48.1
		c-3.1,0-5.6,2.5-5.6,5.6s2.5,5.6,5.6,5.6s5.6-2.5,5.6-5.6S57,48.1,54,48.1z"/>
	<path class="sp-red" d="M55.4,61.2c-0.2,0-0.3,0-0.5-0.1c-0.5-0.3-0.7-0.9-0.4-1.4c0.7-1.3,1.1-3.5,1.1-6s-0.4-4.7-1.1-6
		c-0.3-0.5-0.1-1.1,0.4-1.4c0.5-0.3,1.1-0.1,1.4,0.4c0.8,1.6,1.3,4.1,1.3,6.9c0,2.8-0.5,5.4-1.3,6.9C56.1,61,55.7,61.2,55.4,61.2
		z"/>
	<path class="sp-red" d="M52.6,61.2c-0.4,0-0.7-0.2-0.9-0.5c-0.8-1.5-1.3-4.1-1.3-6.9c0-2.8,0.5-5.4,1.3-6.9
		c0.3-0.5,0.9-0.7,1.4-0.4c0.5,0.3,0.7,0.9,0.4,1.4c-0.7,1.3-1.1,3.5-1.1,6c0,2.4,0.4,4.7,1.1,6c0.3,0.5,0.1,1.1-0.4,1.4
		C52.9,61.1,52.7,61.2,52.6,61.2z"/>
	<path class="sp-red" d="M60.2,54.6H47.8c-0.6,0-1-0.4-1-1s0.4-1,1-1h12.4c0.6,0,1,0.4,1,1S60.8,54.6,60.2,54.6z"/>
	<path class="sp-blue" d="M57.9,65.4H50c-0.6,0-1-0.4-1-1s0.4-1,1-1h7.9c0.6,0,1,0.4,1,1S58.5,65.4,57.9,65.4z"/>
	<path class="sp-red" d="M59,69.5H49c-0.6,0-1.1-0.5-1.1-1.1s0.5-1.1,1.1-1.1h10c0.6,0,1.1,0.5,1.1,1.1S59.6,69.5,59,69.5z"/>
</svg>
