<?xml version="1.0" encoding="utf-8"?>
<!-- Generator: Adobe Illustrator 27.3.1, SVG Export Plug-In . SVG Version: 6.00 Build 0)  -->
<svg version="1.1" xmlns="http://www.w3.org/2000/svg" xmlns:xlink="http://www.w3.org/1999/xlink" x="0px" y="0px"
	 viewBox="0 0 80 80" style="enable-background:new 0 0 80 80;" xml:space="preserve">
	<path class="sp-red" d="M11.1,49c-0.2,0-0.4-0.1-0.6-0.2c-0.5-0.3-0.6-0.9-0.3-1.4l2-2.9c0.3-0.5,0.9-0.6,1.4-0.3
		c0.5,0.3,0.6,0.9,0.3,1.4l-2,2.9C11.8,48.8,11.5,49,11.1,49z"/>
	<path class="sp-red" d="M27.4,49c-0.3,0-0.6-0.2-0.8-0.4l-2-2.9c-0.3-0.5-0.2-1.1,0.3-1.4c0.5-0.3,1.1-0.2,1.4,0.3l2,2.9
		c0.3,0.5,0.2,1.1-0.3,1.4C27.8,48.9,27.6,49,27.4,49z"/>
	<path class="sp-red" d="M51.2,14c-0.6,0-1-0.4-1-1V9.1c0-0.6,0.4-1,1-1H61c0.6,0,1,0.4,1,1v3.7c0,0.6-0.4,1-1,1s-1-0.4-1-1v-2.7h-7.9
		V13C52.2,13.6,51.7,14,51.2,14z"/>
	<path class="sp-red" d="M24.9,21.8H13.1c-0.6,0-1-0.4-1-1s0.4-1,1-1h11.8c0.6,0,1,0.4,1,1S25.5,21.8,24.9,21.8z"/>
	<path class="sp-blue" d="M25.6,46.1H12.8c-2.6,0-3.7-2.1-3.7-3.5l0-7.5c0,0,0-0.1,0-0.1l0.7-6.2c0.3-2.9,2.8-3.8,4.1-3.8l5.3-0.5
		c0.1,0,0.1,0,0.2,0l5.1,0.5c1.2,0,3.7,0.9,4,3.8l0.7,6.2c0,0,0,0.1,0,0.1v7.5C29.2,44,28.2,46.1,25.6,46.1z M11,35.1v7.4
		c0,0.3,0.2,1.5,1.7,1.5h12.8c1.6,0,1.7-1.4,1.7-1.6l0-7.4L26.6,29c-0.2-1.9-2-2.1-2.2-2.1l-5.1-0.5L14,26.9c-0.2,0-2,0.2-2.3,2.1
		L11,35.1z"/>
	<circle class="sp-red" cx="14.8" cy="39.1" r="1.3"/>
	<circle class="sp-red" cx="23.3" cy="39.1" r="1.3"/>
	<path class="sp-blue" d="M27.6,35.3H10.9c-0.6,0-1-0.4-1-1s0.4-1,1-1h16.7c0.6,0,1,0.4,1,1S28.1,35.3,27.6,35.3z"/>
	<circle class="sp-red" cx="48.6" cy="33.4" r="1.4"/>
	<circle class="sp-red" cx="63.3" cy="33.4" r="1.4"/>
	<polyline class="sp-red" points="46.1,37.1 46.1,40.4 48.6,40.4 48.6,37.1 			"/>
	<path class="sp-red" d="M48.6,41.4h-2.5c-0.6,0-1-0.4-1-1v-3.3c0-0.6,0.4-1,1-1s1,0.4,1,1v2.3h0.5v-2.3c0-0.6,0.4-1,1-1s1,0.4,1,1
		v3.3C49.6,41,49.2,41.4,48.6,41.4z"/>
	<polyline class="sp-red" points="62.9,37.1 62.9,40.4 65.4,40.4 65.4,37.1 			"/>
	<path class="sp-red" d="M65.4,41.4h-2.5c-0.6,0-1-0.4-1-1v-3.3c0-0.6,0.4-1,1-1s1,0.4,1,1v2.3h0.5v-2.3c0-0.6,0.4-1,1-1s1,0.4,1,1
		v3.3C66.4,41,66,41.4,65.4,41.4z"/>
	<path class="sp-blue" d="M64.5,38.1H47.7c-1.8,0-3.3-1.5-3.3-3.3V16c0-1.8,1.5-3.3,3.3-3.3h16.9c1.8,0,3.3,1.5,3.3,3.3v18.8
		C67.8,36.6,66.3,38.1,64.5,38.1z M47.7,14.8c-0.7,0-1.3,0.6-1.3,1.3v18.8c0,0.7,0.6,1.3,1.3,1.3h16.9c0.7,0,1.3-0.6,1.3-1.3V16
		c0-0.7-0.6-1.3-1.3-1.3H47.7z"/>
	<path class="sp-blue" d="M71,27.1h-3.1c-0.6,0-1-0.4-1-1s0.4-1,1-1H70v-4.5h-2.1c-0.6,0-1-0.4-1-1s0.4-1,1-1H71c0.6,0,1,0.4,1,1v6.5
		C72,26.6,71.6,27.1,71,27.1z"/>
	<path class="sp-blue" d="M44.3,27.1h-3.1c-0.6,0-1-0.4-1-1v-6.5c0-0.6,0.4-1,1-1h3.1c0.6,0,1,0.4,1,1s-0.4,1-1,1h-2.1v4.5h2.1
		c0.6,0,1,0.4,1,1S44.9,27.1,44.3,27.1z"/>
	<path class="sp-blue" d="M63,20.5H49.2c-0.6,0-1-0.4-1-1s0.4-1,1-1H63c0.6,0,1,0.4,1,1S63.6,20.5,63,20.5z"/>
	<path class="sp-blue" d="M66.3,29.3H46.1c-0.6,0-1-0.4-1-1s0.4-1,1-1h20.2c0.6,0,1,0.4,1,1S66.9,29.3,66.3,29.3z"/>
	<path class="sp-blue" d="M45,66.7h-7.2c-0.3,0-0.6-0.2-0.8-0.4s-0.2-0.6-0.1-0.9l3.5-8.2c0.2-0.5,0.8-0.7,1.3-0.5
		c0.5,0.2,0.7,0.8,0.5,1.3l-2.9,6.8h5.3l7.8-9.2c0.4-0.4,1-0.5,1.4-0.1c0.4,0.4,0.5,1,0.1,1.4l-8.1,9.5
		C45.5,66.5,45.2,66.7,45,66.7z"/>
	<path class="sp-blue" d="M38.2,71.9c-3,0-5.4-2.4-5.4-5.4c0-3,2.4-5.4,5.4-5.4c3,0,5.4,2.4,5.4,5.4C43.6,69.5,41.2,71.9,38.2,71.9z
		 M38.2,63.1c-1.9,0-3.4,1.5-3.4,3.4c0,1.9,1.5,3.4,3.4,3.4s3.4-1.5,3.4-3.4C41.6,64.6,40.1,63.1,38.2,63.1z"/>
	<path class="sp-blue" d="M50.9,51.8h-4.5c-0.6,0-1-0.4-1-1s0.4-1,1-1h4.5c0.6,0,1,0.4,1,1S51.5,51.8,50.9,51.8z"/>
	<path class="sp-blue" d="M55.8,71.9c-3,0-5.4-2.4-5.4-5.4c0-3,2.4-5.4,5.4-5.4s5.4,2.4,5.4,5.4C61.2,69.5,58.8,71.9,55.8,71.9z
		 M55.8,63.1c-1.9,0-3.4,1.5-3.4,3.4c0,1.9,1.5,3.4,3.4,3.4s3.4-1.5,3.4-3.4C59.2,64.6,57.7,63.1,55.8,63.1z"/>
	<path class="sp-blue" d="M55.8,66.6c-0.4,0-0.8-0.3-1-0.7l-4.3-14.8c-0.2-0.5,0.2-1.1,0.7-1.2c0.5-0.1,1.1,0.2,1.2,0.7l4.3,14.8
		c0.2,0.5-0.2,1.1-0.7,1.2C56,66.6,55.9,66.6,55.8,66.6z"/>
	<path class="sp-red" d="M29.1,69.8H20c-0.6,0-1-0.4-1-1s0.4-1,1-1h9.2c0.6,0,1,0.4,1,1S29.7,69.8,29.1,69.8z"/>
	<path class="sp-red" d="M29.1,66.2h-7.6c-0.6,0-1-0.4-1-1s0.4-1,1-1h7.6c0.6,0,1,0.4,1,1S29.7,66.2,29.1,66.2z"/>
	<path class="sp-red" d="M29.1,62.7h-3.6c-0.6,0-1-0.4-1-1s0.4-1,1-1h3.6c0.6,0,1,0.4,1,1S29.7,62.7,29.1,62.7z"/>
	<path class="sp-red" d="M43.7,57.8h-3.6c-0.6,0-1-0.4-1-1s0.4-1,1-1h3.6c0.6,0,1,0.4,1,1S44.2,57.8,43.7,57.8z"/>
</svg>
