<?xml version="1.0" encoding="utf-8"?>
<!-- Generator: Adobe Illustrator 26.0.1, SVG Export Plug-In . SVG Version: 6.00 Build 0)  -->
<svg version="1.1" id="Calque_1" xmlns="http://www.w3.org/2000/svg" xmlns:xlink="http://www.w3.org/1999/xlink" x="0px" y="0px"
	 viewBox="0 0 1000 100" style="enable-background:new 0 0 1000 100;" xml:space="preserve">
<g>
	<path d="M13.3,37.1v-3.7c0-7.5,5-13.5,13.8-13.5c3.2,0,6,0.8,8.2,2l-3.8,7.4c-1.1-0.8-2.5-1.4-4.3-1.4c-3,0-5,2.1-5,5.3v3.9H33v8
		H22.3v27.3h-9V45.1H6.7v-8H13.3z"/>
	<path d="M73.9,54.7c0,10.6-7.8,19-19.3,19c-11.5,0-19.3-8.5-19.3-19s7.8-19,19.3-19C66.1,35.7,73.9,44.2,73.9,54.7z M64.7,54.7
		c0-6.2-4.3-10.6-9.9-10.6c-5.9,0-10.2,4.5-10.2,10.6c0,6.2,4.3,10.6,10.2,10.6C60.4,65.4,64.7,60.8,64.7,54.7z"/>
	<path d="M82,37.1h8.9v3.5c2.3-2.4,5.3-4.2,9.3-4.2c1.2,0,2.2,0.2,3.1,0.5v8.8c-1.1-0.3-2.3-0.5-3.9-0.5c-4.3,0-7.1,2.4-8.5,4.6
		v22.6H82V37.1z"/>
	<path d="M110.5,37.1h8.9v2.7c2.4-2.3,5.4-4.1,9.7-4.1c4.5,0,8.4,2,10.7,5.7c2.5-3.1,5.9-5.7,11.8-5.7c7.3,0,13,5,13,15v21.7h-9V51
		c0-4.3-2.3-6.9-6.3-6.9c-3.9,0-6,2.7-7.4,5c0.1,0.5,0.1,1,0.1,1.5v21.7h-9V51c0-4.3-2.3-6.9-6.3-6.9c-4.1,0-6.2,3-7.5,5.3v23h-8.9
		V37.1z"/>
	<path d="M172.8,62.9c0-5.3,4.1-9.3,11.7-10.6l10.8-1.8v-0.9c0-3.7-2.8-6.1-6.9-6.1c-3.4,0-6.1,1.6-8,4.2l-6.5-5
		c3.2-4.3,8.3-7,14.8-7c10.2,0,15.5,6.1,15.5,13.9v22.8h-8.9V69c-2.2,2.7-6.4,4.5-10.6,4.5C177.7,73.4,172.8,69.4,172.8,62.9z
		 M186.6,66.4c4.1,0,7-1.9,8.8-4.7v-5l-8.4,1.4c-3.7,0.6-5.3,2.2-5.3,4.3C181.7,64.8,183.5,66.4,186.6,66.4z"/>
	<path d="M214.3,19.9h8.9v52.5h-8.9V19.9z"/>
	<path d="M232.5,25.1c0-3.2,2.7-5.8,5.8-5.8c3.2,0,5.7,2.7,5.7,5.8s-2.6,5.8-5.7,5.8C235.2,30.9,232.5,28.3,232.5,25.1z M233.9,37.1
		h8.9v35.3h-8.9V37.1z"/>
	<path d="M255.6,45.1h-6.6v-8h6.6v-8.8h9v8.8h10.8v8h-10.8v14.4c0,3.9,2.1,5.5,5.6,5.5c2.5,0,4.1-0.3,5.3-0.8V72
		c-1.8,0.8-3.9,1.1-6.8,1.1c-8.8,0-13-5-13-13.6V45.1z"/>
	<path d="M299.7,73.8c-12.5,0-19.6-8.8-19.6-19c0-10.4,6.6-19,18.1-19c9.8,0,16.2,6.6,16.2,15.8c0,2-0.3,3.9-0.6,5h-24.7
		c0.8,6.6,4.9,9.2,10.4,9.2c3.9,0,7.2-1.7,9.1-4.2l6.4,5C311.9,71.1,306.4,73.8,299.7,73.8z M289.5,50.1h16.2
		c-0.1-3.6-2.8-7.1-7.7-7.1C293.5,43,290.5,45.5,289.5,50.1z"/>
	<path d="M325.5,62c2.2,2.7,4.8,4.7,8.1,4.7c2.9,0,4.3-1.7,4.3-3.8c0-6.2-16.9-3.9-16.9-16.2c0-6.2,5.3-10.9,12.6-10.9
		c5.4,0,10.3,2.6,12.8,6l-5.9,5.2c-1.8-2.2-4.1-4.1-6.9-4.1c-2.8,0-4.1,1.5-4.1,3.4c0,6,16.9,3.9,16.9,16.1
		c-0.1,7.4-6.1,11.5-12.7,11.5c-6.3,0-10.8-2.5-14.1-6.5L325.5,62z"/>
	<path d="M352.4,67.1c0-3.3,2.7-6.1,6.2-6.1c3.3,0,6.2,2.8,6.2,6.1c0,3.4-2.9,6.1-6.2,6.1C355.1,73.2,352.4,70.5,352.4,67.1z"/>
	<path d="M388.9,73.8c-12.5,0-19.6-8.8-19.6-19c0-10.4,6.6-19,18.1-19c9.8,0,16.2,6.6,16.2,15.8c0,2-0.3,3.9-0.6,5h-24.7
		c0.8,6.6,4.9,9.2,10.4,9.2c3.9,0,7.2-1.7,9.1-4.2l6.4,5C401,71.1,395.6,73.8,388.9,73.8z M378.7,50.1h16.2
		c-0.1-3.6-2.8-7.1-7.7-7.1C382.7,43,379.7,45.5,378.7,50.1z"/>
	<path d="M412.4,37.1h8.9v2.8c2.5-2.4,5.7-4.2,10.4-4.2c7.6,0,13.7,5.3,13.7,15.7v21h-9V51.7c0-4.7-2.7-7.6-7-7.6
		c-4.5,0-6.9,3-8.2,5.3v23h-8.9V37.1z"/>
	<path d="M457.7,45.1h-6.6v-8h6.6v-8.8h9v8.8h10.8v8h-10.8v14.4c0,3.9,2.1,5.5,5.6,5.5c2.5,0,4.1-0.3,5.3-0.8V72
		c-1.8,0.8-3.9,1.1-6.8,1.1c-8.8,0-13-5-13-13.6V45.1z"/>
	<path d="M485.5,37.1h8.9v3.5c2.3-2.4,5.3-4.2,9.3-4.2c1.2,0,2.2,0.2,3.1,0.5v8.8c-1.1-0.3-2.3-0.5-3.9-0.5c-4.3,0-7.1,2.4-8.5,4.6
		v22.6h-8.9V37.1z"/>
	<path d="M529.5,73.8c-12.5,0-19.6-8.8-19.6-19c0-10.4,6.6-19,18.1-19c9.8,0,16.2,6.6,16.2,15.8c0,2-0.3,3.9-0.6,5H519
		c0.8,6.6,4.9,9.2,10.4,9.2c3.9,0,7.2-1.7,9.1-4.2l6.4,5C541.6,71.1,536.1,73.8,529.5,73.8z M519.3,50.1h16.2
		c-0.1-3.6-2.8-7.1-7.7-7.1C523.3,43,520.2,45.5,519.3,50.1z"/>
	<path d="M552.9,37.1h8.9V40c2.7-2.7,6.2-4.3,11-4.3c11.2,0,17.9,8.8,17.9,19c0,10.3-6.7,19-17.9,19c-4.8,0-8.3-1.5-11-4.3v20.1
		h-8.9V37.1z M561.8,49.2v11.1c2.4,3.4,5.7,5.1,9.7,5.1c6,0,9.9-4.5,9.9-10.6c0-6.2-3.9-10.6-9.9-10.6
		C567.4,44.1,564.1,45.9,561.8,49.2z"/>
	<path d="M598.9,37.1h8.9v3.5c2.3-2.4,5.3-4.2,9.3-4.2c1.2,0,2.2,0.2,3.1,0.5v8.8c-1.1-0.3-2.3-0.5-3.9-0.5c-4.3,0-7.1,2.4-8.5,4.6
		v22.6h-8.9V37.1z"/>
	<path d="M625.9,25.1c0-3.2,2.7-5.8,5.8-5.8s5.7,2.7,5.7,5.8s-2.6,5.8-5.7,5.8S625.9,28.3,625.9,25.1z M627.3,37.1h8.9v35.3h-8.9
		V37.1z"/>
	<path d="M649.1,62c2.2,2.7,4.8,4.7,8.1,4.7c2.9,0,4.3-1.7,4.3-3.8c0-6.2-16.9-3.9-16.9-16.2c0-6.2,5.3-10.9,12.6-10.9
		c5.4,0,10.3,2.6,12.8,6l-5.9,5.2c-1.8-2.2-4.1-4.1-6.9-4.1c-2.8,0-4.1,1.5-4.1,3.4c0,6,16.9,3.9,16.9,16.1
		c-0.1,7.4-6.1,11.5-12.7,11.5c-6.3,0-10.8-2.5-14.1-6.5L649.1,62z"/>
	<path d="M695.2,73.8c-12.5,0-19.6-8.8-19.6-19c0-10.4,6.6-19,18.1-19c9.8,0,16.2,6.6,16.2,15.8c0,2-0.3,3.9-0.6,5h-24.7
		c0.8,6.6,4.9,9.2,10.4,9.2c3.9,0,7.2-1.7,9.1-4.2l6.4,5C707.4,71.1,701.9,73.8,695.2,73.8z M685,50.1h16.2
		c-0.1-3.6-2.8-7.1-7.7-7.1C689,43,686,45.5,685,50.1z"/>
	<path d="M721,62c2.2,2.7,4.8,4.7,8.1,4.7c2.9,0,4.3-1.7,4.3-3.8c0-6.2-16.9-3.9-16.9-16.2c0-6.2,5.3-10.9,12.6-10.9
		c5.4,0,10.3,2.6,12.8,6l-5.9,5.2c-1.8-2.2-4.1-4.1-6.9-4.1c-2.8,0-4.1,1.5-4.1,3.4c0,6,16.9,3.9,16.9,16.1
		c-0.1,7.4-6.1,11.5-12.7,11.5c-6.3,0-10.8-2.5-14.1-6.5L721,62z"/>
	<path d="M747.9,67.1c0-3.3,2.7-6.1,6.2-6.1c3.3,0,6.2,2.8,6.2,6.1c0,3.4-2.9,6.1-6.2,6.1C750.6,73.2,747.9,70.5,747.9,67.1z"/>
	<path d="M769.8,69.9c-1.4-1.4-2.2-3.3-2.2-5.1c0-2.8,1.2-5,3.8-7c-3.1-2.3-4.8-5.8-4.8-9.7c0-6.9,5.3-12.4,14.1-12.4
		c2.7,0,5.1,0.5,7.1,1.4h12.9v7.6h-6.2c0.4,1.1,0.5,2.2,0.5,3.4c0,6.9-5.2,12.5-14.3,12.5c-1.2,0-2.3-0.1-3.4-0.3
		c-0.8,0.7-1.2,1.5-1.2,2.2c0,1.4,0.8,2.1,2.4,2.1h8.9c8.9,0,13.7,4.8,13.7,11.3c0,7.8-7.5,13.9-18.5,13.9
		c-11.3,0-17.9-3.9-17.9-11.3C764.9,75,766.6,72.2,769.8,69.9z M782.7,82.7c6.4,0,9.7-2.4,9.7-5.9c0-2.7-1.6-4.5-5.9-4.5h-10.2
		c-2.1,1.3-3.2,2.8-3.2,5C773.3,80.6,776.5,82.7,782.7,82.7z M787.1,48.1c0-3.5-2.4-5.7-6.1-5.7c-3.9,0-6.2,2.3-6.2,5.7
		c0,3.5,2.3,5.8,6.2,5.8C784.7,53.9,787.1,51.6,787.1,48.1z"/>
	<path d="M841.9,54.7c0,10.6-7.8,19-19.3,19s-19.3-8.5-19.3-19s7.8-19,19.3-19S841.9,44.2,841.9,54.7z M832.7,54.7
		c0-6.2-4.3-10.6-9.9-10.6c-5.9,0-10.2,4.5-10.2,10.6c0,6.2,4.3,10.6,10.2,10.6C828.4,65.4,832.7,60.8,832.7,54.7z"/>
	<path d="M873.3,37.1h9v19.6c0,10.6-6.2,17.1-16.5,17.1c-10.4,0-16.5-6.5-16.5-17.1V37.1h9v20c0,5.1,2.7,8.3,7.6,8.3
		c4.8,0,7.5-3.1,7.5-8.3V37.1z"/>
	<path d="M897.1,37.1l9.2,25.2l9.1-25.2h9.6l-12.9,35.3h-11.7l-12.8-35.3H897.1z"/>
	<path d="M924.4,67.1c0-3.3,2.7-6.1,6.2-6.1c3.3,0,6.2,2.8,6.2,6.1c0,3.4-2.9,6.1-6.2,6.1C927.1,73.2,924.4,70.5,924.4,67.1z"/>
	<path d="M947.5,37.1v-3.7c0-7.5,5-13.5,13.8-13.5c3.2,0,6,0.8,8.2,2l-3.8,7.4c-1-0.8-2.5-1.4-4.3-1.4c-3,0-5,2.1-5,5.3v3.9h10.8v8
		h-10.8v27.3h-9V45.1h-6.6v-8H947.5z"/>
	<path d="M972.9,37.1h8.9v3.5c2.3-2.4,5.3-4.2,9.3-4.2c1.2,0,2.2,0.2,3.1,0.5v8.8c-1.1-0.3-2.3-0.5-3.9-0.5c-4.3,0-7.1,2.4-8.5,4.6
		v22.6h-8.9V37.1z"/>
</g>
</svg>
