<svg id="Calque_1" data-name="Calque 1" xmlns="http://www.w3.org/2000/svg" viewBox="0 0 500 110"><defs><style>.cls-1{fill:#1d1d1b;}</style></defs><path class="cls-1" d="M11.74,23.86H28.57c12.51,0,20.16,6.39,20.16,16.74a14.25,14.25,0,0,1-7.2,12.69c7,2.79,10.89,8.37,10.89,15.3,0,11.25-8.55,18.27-22.41,18.27H11.74ZM22,32.59V49.51h6.75c5.85,0,9.27-3.15,9.27-8.64,0-5.22-3.42-8.28-9.27-8.28Zm0,25.56v20h8.55c7,0,11.16-3.69,11.16-10s-4.14-10-11.16-10Z"/><path class="cls-1" d="M128.2,55.36c0,18-13.5,33.3-33.21,33.3s-33.21-15.3-33.21-33.3S75.19,22.06,95,22.06,128.2,37.36,128.2,55.36Zm-10.71,0c0-13.23-9.36-23.58-22.5-23.58S72.4,42.22,72.4,55.36,81.85,78.94,95,78.94,117.49,68.5,117.49,55.36Z"/><path class="cls-1" d="M142.24,23.86h24.48c19.8,0,33.21,14.49,33.21,31.5s-13.41,31.5-33.21,31.5H142.24Zm10.26,9.45v44.1h14.31c13.05,0,22.41-9.81,22.41-22s-9.36-22-22.41-22Z"/><path class="cls-1" d="M229.27,23.86H243l24.57,63H256.45l-6.66-17.64H222.34l-6.66,17.64h-11Zm17.1,36.54L236.11,33.22,225.76,60.4Z"/><path class="cls-1" d="M323.77,69.4l8.28,6.39A32.59,32.59,0,0,1,305.5,88.66c-19.8,0-33.21-15.3-33.21-33.3s13.41-33.3,33.21-33.3a32.59,32.59,0,0,1,26.55,12.87l-8.28,6.39a21.91,21.91,0,0,0-18.27-9.54c-13.14,0-22.59,10.44-22.59,23.58s9.45,23.58,22.59,23.58A21.91,21.91,0,0,0,323.77,69.4Z"/><path class="cls-1" d="M390.46,69.4l8.28,6.39a32.59,32.59,0,0,1-26.55,12.87c-19.8,0-33.21-15.3-33.21-33.3s13.41-33.3,33.21-33.3a32.59,32.59,0,0,1,26.55,12.87l-8.28,6.39a21.91,21.91,0,0,0-18.27-9.54c-13.14,0-22.59,10.44-22.59,23.58s9.45,23.58,22.59,23.58A21.91,21.91,0,0,0,390.46,69.4Z"/><path class="cls-1" d="M406.48,81.28a6.71,6.71,0,0,1,13.41,0,6.71,6.71,0,0,1-13.41,0Z"/><path class="cls-1" d="M436,41.5V35.92c0-9.63,6.21-16.56,16.11-16.56a19.91,19.91,0,0,1,10,2.61l-3.42,6.39a10.44,10.44,0,0,0-6.39-2.07c-5.13,0-8.55,3.51-8.55,9.45V41.5h15.75v6.93H443.74V86.86H436V48.43h-8.55V41.5Z"/><path class="cls-1" d="M466.87,41.5h7.65v5.67c3.33-4,7.47-6.57,13.23-6.57a12.56,12.56,0,0,1,3.87.54v7.47a16.66,16.66,0,0,0-4.5-.54c-5.94,0-9.81,3.06-12.6,7.65V86.86h-7.65Z"/></svg>