<?xml version="1.0" encoding="utf-8"?>
<!-- Generator: Adobe Illustrator 21.0.0, SVG Export Plug-In . SVG Version: 6.00 Build 0)  -->
<svg version="1.1" id="Calque_1" xmlns="http://www.w3.org/2000/svg" xmlns:xlink="http://www.w3.org/1999/xlink" x="0px" y="0px"
	 viewBox="0 0 553.2 257.9" style="enable-background:new 0 0 553.2 257.9;" xml:space="preserve">
<style type="text/css">
	.st0{fill:#2A4E96;}
	.st1{fill:#F1A34F;}
</style>
<g>
	<path class="st0" d="M90.8,155.9c0.8,16.1,8.1,30.6,19.7,41.5c39.8-4.4,69.8-38.9,67.8-79.3c-0.5-11.6-3.7-22.4-8.8-32.1
		c-1.8,0-3.7,0-5.6,0.1C121.8,88.1,89,119.4,90.8,155.9z"/>
	<path class="st1" d="M46.3,71.7c-11,12.5-18,28.6-18.9,46.4c-2,39.6,26.7,73.7,65.4,79.2c11-12.5,18-28.6,18.9-46.4
		C113.7,111.2,84.9,77.2,46.3,71.7z"/>
	<path class="st0" d="M105.2,191.6c-22.7-27.9-12.1-55.1-12.1-55.1c8.1,16.8,24.6,43.1,24.6,43.1L105.2,191.6z"/>
	<path class="st1" d="M94,70.7c4.1-7,3.5-15-1.3-17.8c-4.8-2.8-12,0.7-16.1,7.8c-4.1,7-3.5,15,1.3,17.8C82.7,81.2,89.9,77.7,94,70.7
		z"/>
	<path class="st0" d="M129.9,90.2c5.4-2.1,7.7-9.3,5-16.1s-9.3-10.5-14.7-8.3c-5.4,2.1-7.7,9.3-5,16.1
		C117.9,88.6,124.5,92.3,129.9,90.2z"/>
	<path class="st0" d="M389.2,116.1c4.8,0,8.1-2.4,10-4.3c0.8,1.9,2.2,3.2,4.2,3.9l0.3,0.1l0.3-0.1c1.2-0.6,2.2-2,2.6-3l0.2-0.4
		l-0.3-0.3c-1.5-1.5-1.7-4.3-1.7-6.8V67.7c0-2-0.3-4.1-3.4-4.1h-2.2l-0.8,0.8V82c-2.7-1.6-5.3-2.3-7.9-2.3c-3.4,0-6.8,1.6-9.2,4.4
		c-2.8,3.3-4.3,8.2-4.3,14C377,109.4,381.5,116.1,389.2,116.1z M383.5,98.2c0-5.8,2-12.7,7.5-12.7c2.8,0,5.4,1.4,7.4,2.7v17.3
		c-2.1,2.9-5.3,4.8-8.2,4.8C385.3,110.3,383.5,104.1,383.5,98.2z"/>
	<path class="st0" d="M440.1,112.2l0.4-0.2l0-0.4c-0.1-1.1-0.9-2.9-2.1-3.9l-0.4-0.3l-0.4,0.2c-3.5,1.9-6.5,2.8-9.6,2.8
		c-5.2,0-7.7-3.2-8.1-10.2H441l0.1-0.6c0.3-1.8,0.4-3,0.4-4.6c0-9.3-5.4-15.3-13.9-15.3c-8.7,0-14.4,7.2-14.4,18.2
		c0,11.8,5,18.3,14.2,18.3C431.8,116.1,436.6,114.6,440.1,112.2z M434.9,94.5v0.2h-15c0.5-6.3,3.2-9.9,7.6-9.9
		C434.1,84.8,434.9,91.6,434.9,94.5z"/>
	<path class="st0" d="M458.9,116.1c8.1,0,13.3-4.1,13.3-10.4c0-4.7-2.9-8.2-9-10.5l-4.1-1.6c-3.4-1.3-4.7-2.5-4.7-4.3
		c0-2.6,2.2-4.3,5.4-4.3c2.7,0,5.6,0.7,8.7,2.1l0.4,0.2l0.3-0.3c1.1-1,1.8-2.9,1.8-4.5V82l-0.4-0.2c-3-1.4-7.5-2.3-10.7-2.3
		c-7,0-12.1,4.2-12.1,10.1c0,4.5,3,7.8,9.2,10.1l3.8,1.5c2.8,1,4.5,2.8,4.5,4.8c0,2.8-2.7,4.7-6.6,4.7c-3.5,0-7.1-1.7-9.4-3.1
		l-0.4-0.2l-0.4,0.3c-1.2,1-2.2,2.8-2.2,4.2v0.4l0.4,0.2C449.4,114.2,453.5,116.1,458.9,116.1z"/>
	<path class="st0" d="M250.1,115.5c0.5,0,0.9,0,1.3,0c5.4,0,9.2-2.2,11.1-3.8c1.7,2.5,4.6,4.3,8.7,4.3c3.5,0,7-1.6,10.4-4.6
		c0.8,2.1,2.2,3.4,4.3,4.2l0.3,0.1l0.3-0.1c1.2-0.5,2.3-2,2.7-3l0.2-0.4l-0.3-0.3c-1.5-1.4-1.7-3.1-1.7-6.1V91.8
		c0-7.9-3.9-12.1-11.3-12.1c-5.7,0-11.5,2.3-13.7,3.3l-0.4,0.2v0.5c0,1.6,0.9,3.5,2,4.5l0.3,0.3l0.4-0.2c4.2-1.8,7.7-2.7,10.9-2.7
		c3.8,0,5.5,1.9,5.5,6.3v2.6c-2-0.3-4.3-0.5-6.9-0.5c-8.6,0-13.5,4.2-13.5,11.7c0,0.2,0,0.5,0,0.7c-2.2,2.1-4.6,3.8-8.4,3.8
		c-0.1,0-0.2,0-0.3,0c-0.7,0-1.1-0.2-1.5-0.5c-0.5-0.5-0.5-1.7-0.5-2.7c0-0.3,0-0.6,0-0.9V67.8c0-2-0.3-4.1-3.4-4.1h-2.2l-0.8,0.8
		v44.7C243.6,113,246,115.3,250.1,115.5z M267.2,105.1c0-3.9,2.6-6.2,7-6.2c1.7,0,4.3,0.1,6.8,0.4v6c-2.5,3.1-5.9,5-9.1,5
		C268.5,110.4,267.2,107.6,267.2,105.1z"/>
	<path class="st0" d="M220.5,61.9c-3.1,0-5.9,0-8.9,0.1c-1.8,0-3.6,0.1-5.5,0.1h-0.3L205,63v51.8l0.5,0.1c0.8,0.1,1.8,0.2,2.9,0.2
		c1.2,0,2.3-0.1,3.1-0.2l0.5-0.1V95.5h8.4c10.7,0,17.3-6.5,17.3-16.9C237.8,68.3,231.2,61.9,220.5,61.9z M230.3,78.7
		c0,9.3-6,10.7-9.7,10.7c-1.9,0-5.6,0-8.6,0V68c2.7,0,6.4,0,8.6,0C229.1,68,230.3,74.7,230.3,78.7z"/>
	<path class="st0" d="M320.6,111l0.3-0.3l-0.1-0.4c-0.3-1.3-1.5-2.9-2.7-3.6l-0.4-0.2l-0.4,0.3c-2.5,1.8-5.3,3.6-8.4,3.6
		c-6.7,0-8.1-6.7-8.1-12.2c0-8.2,2.9-13.1,7.7-13.1c2,0,3.6,0.6,4.7,1.8c1.3,1.4,1.9,3.6,1.8,6.1l0,0.6l0.6,0.1
		c0.8,0.1,1.5,0.2,2.3,0.2c3.4,0,3.4-2.9,3.4-3.8c0-4.1-3.4-10.4-12.5-10.4c-6.7,0-14.5,4.9-14.5,18.6c0,8.7,3.7,18,14.1,18
		C312.8,116.1,317,114.4,320.6,111z"/>
	<path class="st0" d="M340.4,79.5c-8.7,0-14.4,7.2-14.4,18.2c0,11.8,5,18.3,14.2,18.3c4.5,0,9.3-1.5,12.9-4l0.4-0.2l0-0.4
		c-0.1-1.2-0.9-2.9-2.1-3.9l-0.4-0.3l-0.4,0.2c-3.5,1.9-6.5,2.8-9.6,2.8c-5.2,0-7.8-3.2-8.1-10.2h21.1l0.1-0.6
		c0.3-1.8,0.4-3,0.4-4.6C354.4,85.5,348.9,79.5,340.4,79.5z M347.9,94.5v0.2h-15c0.5-6.3,3.2-9.9,7.6-9.9
		C347.1,84.8,347.9,91.6,347.9,94.5z"/>
	<path class="st0" d="M339.9,150.6c-3.7,0-6.8,1.3-9.2,3.6c-2-1.4-5.7-3.3-10.3-3.1c-3.9,0.1-7,1.9-9,4.9c-1-2.4-2.6-4.2-4.9-5
		l-0.3-0.1l-0.3,0.2c-1.1,0.7-2.2,2.1-2.5,3.3l-0.1,0.4l0.3,0.3c1.1,1,2.2,3.3,2.2,6.5v24.8l0.5,0.1c0.7,0.1,1.6,0.2,2.7,0.2
		c1,0,1.9-0.1,2.6-0.2l0.5-0.1v-23.2c1.5-3.1,4.3-6.3,8.2-6.3c3.3,0,5.6,1.4,6.8,2.4c-1.2,2.7-1.8,6-1.8,9.7
		c0,11.8,5,18.3,14.2,18.3c4.5,0,9.3-1.5,12.9-4l0.4-0.2l0-0.4c-0.1-1.1-0.9-2.9-2.1-3.9l-0.4-0.3l-0.4,0.2
		c-3.5,1.9-6.5,2.8-9.6,2.8c-5.2,0-7.7-3.2-8.1-10.2h21.1l0.1-0.6c0.3-1.8,0.4-3,0.4-4.6C353.9,156.6,348.4,150.6,339.9,150.6z
		 M347.4,165.7v0.2h-15c0.5-6.3,3.2-9.9,7.6-9.9C346.6,155.9,347.4,162.7,347.4,165.7z"/>
	<path class="st0" d="M211.9,180.6c0-0.2,0-0.4,0-0.6c0-0.5,0-1,0-1.5v-15.1c1.4,0,2.8,0,3.8,0h16.2l0.1-0.5
		c0.1-0.8,0.2-1.8,0.2-2.6c0-0.7-0.1-1.7-0.2-2.6l-0.1-0.6h-16.2c-0.5,0-1.2,0-1.9,0c-0.6,0-1.2,0-1.9,0v-12.6c0-1,0-1.7,0-2.4
		c0-0.5,0-1,0-1.6c0.9,0,1.8,0,2.7,0c0.5,0,0.9,0,1.2,0h19.7l0.1-0.5c0.3-0.9,0.4-2.1,0.4-2.9c0-0.7,0-1.5-0.1-2.5l-0.1-0.6h-30
		L205,135v47.4c0,2.7,1.6,4.5,3.9,4.5h23.8c2.4,0,3.9-1.1,4.4-3.2c0.2-0.9,0.2-2,0.2-2.5v-0.7h-21.4
		C214.4,180.5,213.1,180.5,211.9,180.6z"/>
	<path class="st0" d="M271.4,179.2v-17c0-7.2-3.5-11.4-9.6-11.4c-3.8,0-8,1.5-11.1,4c-0.1-2-0.6-3.7-3.4-3.7h-2.2l-0.8,0.8v34.2
		l0.5,0.1c0.7,0.1,1.6,0.2,2.7,0.2c1,0,1.9-0.1,2.6-0.2l0.5-0.1v-24.6c2.6-2.9,6.6-4.8,9.9-4.8c3.3,0,4.3,1.6,4.3,7v18.9
		c0,1.7,0.3,4.1,3.3,4.1c1.5,0,2.9-0.5,3.7-1.3l0.3-0.3l-0.2-0.4C271.5,183.3,271.4,181.1,271.4,179.2z"/>
	<path class="st0" d="M297.8,151.4l-8.6,0.1v-9.9l-0.8-0.8h-2.2c-3.1,0-3.4,2.1-3.4,4.1v6.5l-4.8,0L278,152
		c-0.1,0.8-0.2,1.4-0.2,2.1c0,0.9,0.1,1.5,0.2,2.1l0.1,0.5l4.8,0v23.6c0,4,2.6,6.4,7,6.4c2.6,0,4.8-0.1,7-0.4l0.4,0l0.2-0.3
		c0.2-0.4,0.2-0.9,0.2-1.3c0-1-0.2-2.1-0.5-3l-0.2-0.5h-5.7c-1.4,0-2-0.6-2-2.2v-22.3l8.6,0l0.1-0.5c0.1-0.6,0.2-1.3,0.2-2.1
		c0-0.7,0-1.3-0.2-2.1L297.8,151.4z"/>
	<path class="st0" d="M377.7,150.6c-3.4,0-6.8,1.3-9.4,3.6c-0.2-1.7-1-3.1-3.4-3.1h-2.1l-0.8,0.8v48.2l0.8,0.8h2.2
		c3.2,0,3.4-2.1,3.4-4.1v-12.3c2.7,1.5,5.3,2.2,8,2.2c6.5,0,13.5-5.7,13.5-18.4C389.9,157.3,385.3,150.6,377.7,150.6z M383.4,168.5
		c0,5.8-2,12.6-7.5,12.6c-2.4,0-4.8-0.9-7.6-2.7v-17c2.1-3.1,5.3-5,8.4-5C379.9,156.4,383.4,159.6,383.4,168.5z"/>
	<path class="st0" d="M413.2,151.1c-3.8,0-7,1.7-9,4.9c-1-2.4-2.6-4.1-4.9-5l-0.3-0.1l-0.3,0.2c-1.1,0.7-2.2,2.1-2.5,3.3l-0.1,0.4
		l0.3,0.3c1.1,1,2.2,3.3,2.2,6.5v24.8l0.5,0.1c0.7,0.1,1.6,0.2,2.7,0.2c1,0,1.9-0.1,2.6-0.2l0.5-0.1v-23.2c1.2-2.6,3.5-5.7,7.7-5.7
		c0.8,0,1.6,0,2.3,0l0.4,0l0.2-0.4c0.8-1.3,1.3-3.2,1.3-5.2v-0.6l-0.6-0.1C414.9,151.1,413.8,151.1,413.2,151.1z"/>
	<path class="st0" d="M425.2,151.2h-0.6c-0.8,0-2,0.1-3.5,0.4l-0.5,0l-0.1,0.4c-0.2,0.7-0.3,1.3-0.3,2.1c0,0.8,0.1,1.4,0.3,2.1
		l0.1,0.5h1.1c1.6,0,2.1,0.3,2.1,2.6v27l0.6,0.1c0.7,0.1,1.6,0.2,2.7,0.2c1,0,1.9-0.1,2.6-0.2l0.6-0.1v-29.4
		C430.4,153.4,428.4,151.2,425.2,151.2z"/>
	<path class="st0" d="M429.5,139.9c-0.8-0.5-2.6-0.8-3.5-0.8c-1.2,0-2.7,0.3-3.4,0.8l-0.2,0.1l-0.1,0.2c-0.4,0.7-0.6,2-0.6,2.8
		c0,0.9,0.2,2.1,0.6,2.8l0.1,0.2l0.2,0.1c0.8,0.5,2.3,0.9,3.4,0.9c1,0,2.7-0.3,3.5-0.9l0.1-0.1l0.1-0.1c0.4-0.7,0.6-2,0.6-2.8
		c0-0.9-0.2-2.1-0.6-2.8l-0.1-0.2L429.5,139.9z"/>
	<path class="st0" d="M454.1,166.3l-4.1-1.6c-3.4-1.3-4.7-2.5-4.7-4.3c0-2.6,2.2-4.3,5.4-4.3c2.7,0,5.6,0.7,8.7,2.1l0.5,0.2l0.3-0.3
		c1.1-1,1.8-2.9,1.8-4.5v-0.5l-0.4-0.2c-3-1.4-7.5-2.3-10.7-2.3c-7,0-12.1,4.2-12.1,10.1c0,4.5,3,7.8,9.2,10.1l3.8,1.5
		c2.8,1,4.5,2.8,4.5,4.8c0,2.8-2.7,4.7-6.6,4.7c-3.5,0-7.1-1.7-9.4-3.1l-0.4-0.2l-0.4,0.3c-1.2,1-2.2,2.8-2.2,4.2v0.4l0.4,0.2
		c2.6,1.6,6.7,3.5,12,3.5c8.1,0,13.3-4.1,13.3-10.4C463.1,172.1,460.2,168.7,454.1,166.3z"/>
	<path class="st0" d="M482.7,150.6c-8.7,0-14.4,7.2-14.4,18.2c0,11.8,5,18.3,14.2,18.3c4.5,0,9.3-1.5,12.9-4l0.4-0.2l0-0.4
		c-0.1-1.1-0.9-2.9-2.1-3.9l-0.4-0.3l-0.4,0.2c-3.5,1.9-6.5,2.8-9.6,2.8c-5.2,0-7.7-3.2-8.1-10.2h21.1l0.1-0.6
		c0.3-1.8,0.4-3,0.4-4.6C496.6,156.6,491.1,150.6,482.7,150.6z M490,165.7v0.2h-15c0.5-6.3,3.3-9.9,7.6-9.9
		C489.3,155.9,490,162.7,490,165.7z"/>
	<path class="st0" d="M518.4,166.3l-4.1-1.6c-3.4-1.3-4.7-2.5-4.7-4.3c0-2.6,2.2-4.3,5.4-4.3c2.7,0,5.6,0.7,8.7,2.1l0.5,0.2l0.3-0.3
		c1.1-1,1.8-2.9,1.8-4.5v-0.5l-0.4-0.2c-3-1.4-7.5-2.3-10.7-2.3c-7,0-12.1,4.2-12.1,10.1c0,4.5,3,7.8,9.2,10.1l3.8,1.5
		c2.8,1,4.5,2.8,4.5,4.8c0,2.8-2.7,4.7-6.6,4.7c-3.5,0-7-1.7-9.4-3.1l-0.4-0.2l-0.4,0.3c-1.2,1-2.2,2.8-2.2,4.2v0.4l0.4,0.2
		c2.6,1.6,6.7,3.5,12,3.5c8.1,0,13.3-4.1,13.3-10.4C527.4,172.1,524.4,168.7,518.4,166.3z"/>
</g>
</svg>
