<?xml version="1.0" encoding="utf-8"?>
<!-- Generator: Adobe Illustrator 21.0.0, SVG Export Plug-In . SVG Version: 6.00 Build 0)  -->
<svg version="1.1" id="Calque_1" xmlns="http://www.w3.org/2000/svg" xmlns:xlink="http://www.w3.org/1999/xlink" x="0px" y="0px"
	 viewBox="0 0 553.2 257.9" style="enable-background:new 0 0 553.2 257.9;" xml:space="preserve">
<style type="text/css">
	.st0{clip-path:url(#SVGID_2_);}
	.st1{fill:#000091;}
	.st2{fill:#E1000F;}
</style>
<g>
	<defs>
		<rect id="SVGID_1_" x="37.2" y="41.3" width="483.2" height="180"/>
	</defs>
	<clipPath id="SVGID_2_">
		<use xlink:href="#SVGID_1_"  style="overflow:visible;"/>
	</clipPath>
	<g class="st0">
		<path class="st1" d="M40.5,143.2H53V115c3.8,3.8,8.6,6,15.4,6c15.7,0,25.2-12.3,25.2-26.7s-9.4-26.7-25.2-26.7
			c-6.8,0-11.6,2.2-15.4,6v-4H40.5V143.2z M66.7,79.3c8.5,0,14,6.3,14,14.9s-5.5,14.9-14,14.9c-5.7,0-10.3-2.5-13.7-7.2V86.5
			C56.2,81.9,60.9,79.3,66.7,79.3z M129.1,67.6C113,67.6,102,79.4,102,94.3c0,14.8,11,26.7,27.1,26.7s27.1-11.9,27.1-26.7
			C156.2,79.4,145.2,67.6,129.1,67.6z M129.3,109.2c-8.3,0-14.3-6.3-14.3-14.9s6.1-14.9,14.3-14.9c8,0,14,6.3,14,14.9
			C143.2,102.8,137.3,109.2,129.3,109.2z M167.6,119h12.5V87.3c1.9-3.1,5.8-6.5,11.9-6.5c2.3,0,3.9,0.3,5.5,0.7V69.2
			c-1.2-0.4-2.7-0.7-4.3-0.7c-5.6,0-9.8,2.6-13.1,5.9v-4.9h-12.5V119z M213.9,101c0,12.1,5.9,19,18.3,19c4.1,0,7.1-0.5,9.5-1.6
			v-10.9c-1.7,0.7-3.9,1.1-7.4,1.1c-4.9,0-7.9-2.2-7.9-7.7V80.7h15.1V69.5h-15.1V57.2h-12.6v12.4h-9.2v11.2h9.2V101z M266.8,120.5
			c5.8,0,11.7-2.5,14.8-6.3v4.8h12.5V87c0-10.9-7.4-19.4-21.7-19.4c-9,0-16.3,3.7-20.7,9.8l9.1,7c2.7-3.6,6.4-5.9,11.2-5.9
			c5.7,0,9.6,3.3,9.6,8.5v1.3l-15.1,2.6c-10.6,1.8-16.4,7.4-16.4,14.8C250.1,114.8,256.9,120.5,266.8,120.5z M262.5,105.1
			c0-3,2.2-5.2,7.4-6.1l11.8-2v7c-2.5,3.9-6.6,6.6-12.3,6.6C265.1,110.6,262.5,108.4,262.5,105.1z M314.7,60.9
			c4.4,0,8.1-3.7,8.1-8.2c0-4.4-3.6-8.2-8.1-8.2c-4.4,0-8.2,3.7-8.2,8.2C306.5,57.2,310.3,60.9,314.7,60.9z M308.4,119h12.5V69.5
			h-12.5V119z M335.9,119h12.5V45.4h-12.5V119z"/>
		<path class="st2" d="M363.3,143.2h12.5V115c3.8,3.8,8.6,6,15.4,6c15.7,0,25.2-12.3,25.2-26.7s-9.4-26.7-25.2-26.7
			c-6.8,0-11.6,2.2-15.4,6v-4h-12.5V143.2z M389.4,79.3c8.5,0,14,6.3,14,14.9s-5.5,14.9-14,14.9c-5.7,0-10.3-2.5-13.7-7.2V86.5
			C378.9,81.9,383.6,79.3,389.4,79.3z M427.8,119h12.5V87.3c1.9-3.1,5.8-6.5,11.9-6.5c2.3,0,3.9,0.3,5.5,0.7V69.2
			c-1.2-0.4-2.7-0.7-4.3-0.7c-5.6,0-9.8,2.6-13.1,5.9v-4.9h-12.5V119z M489.2,67.6c-16.1,0-27.1,11.9-27.1,26.7s11,26.7,27.1,26.7
			c16.1,0,27.1-11.9,27.1-26.7S505.3,67.6,489.2,67.6z M489.4,109.2c-8.3,0-14.4-6.3-14.4-14.9s6.1-14.9,14.4-14.9
			c8,0,14,6.3,14,14.9C503.4,102.8,497.4,109.2,489.4,109.2z M46.4,197.9c4.6,0,8.6-3.8,8.6-8.5c0-4.6-4-8.5-8.6-8.5
			c-4.8,0-8.6,3.9-8.6,8.5C37.8,194.1,41.6,197.9,46.4,197.9z M61.6,205.4c0,10.4,9.3,15.9,25.2,15.9c15.4,0,25.9-8.4,25.9-19.4
			c0-9.2-6.8-15.9-19.3-15.9H81c-2.3,0-3.3-1-3.3-2.9c0-1.1,0.6-2.2,1.7-3.1c1.5,0.3,3,0.4,4.7,0.4c12.8,0,20-7.9,20-17.6
			c0-1.7-0.2-3.2-0.7-4.8h8.7v-10.6H94.1c-2.9-1.3-6.2-2-10-2c-12.4,0-19.9,7.8-19.9,17.4c0,5.5,2.4,10.4,6.7,13.6
			c-3.7,2.7-5.4,5.9-5.4,9.8c0,2.6,1.1,5.2,3,7.2C64.1,196.6,61.6,200.5,61.6,205.4z M84.2,170.8c-5.4,0-8.6-3.2-8.6-8.2
			c0-4.8,3.2-8.1,8.6-8.1c5.2,0,8.6,3.1,8.6,8.1C92.8,167.6,89.4,170.8,84.2,170.8z M73.4,203.6c0-3,1.5-5.2,3.3-7h15.3
			c6,0,8.3,2.7,8.3,6.4c0,4.9-4.6,8.2-13.7,8.2C77.9,211.3,73.4,208.3,73.4,203.6z M142.5,145.3c-16.1,0-27.1,11.9-27.1,26.7
			s11,26.7,27.1,26.7s27.1-11.9,27.1-26.7S158.6,145.3,142.5,145.3z M142.7,186.9c-8.3,0-14.3-6.3-14.3-14.9
			c0-8.6,6.1-14.9,14.3-14.9c8,0,14,6.3,14,14.9C156.7,180.6,150.7,186.9,142.7,186.9z M213.7,175.4c0,7.2-3.7,11.6-10.5,11.6
			c-6.9,0-10.6-4.4-10.6-11.6v-28.1H180v27.5c0,14.8,8.6,24,23.1,24c14.5,0,23.2-9.1,23.2-24v-27.5h-12.6V175.4z M233.8,147.3
			l18,49.5h16.4l18.1-49.5h-13.5L260,182.6l-12.9-35.3H233.8z"/>
	</g>
</g>
</svg>
