<?xml version="1.0" encoding="UTF-8" standalone="no"?>
<!DOCTYPE svg PUBLIC "-//W3C//DTD SVG 1.1//EN" "http://www.w3.org/Graphics/SVG/1.1/DTD/svg11.dtd">
<svg width="100%" height="100%" viewBox="0 0 80 80" version="1.1" xmlns="http://www.w3.org/2000/svg" xmlns:xlink="http://www.w3.org/1999/xlink" xml:space="preserve" xmlns:serif="http://www.serif.com/" style="fill-rule:evenodd;clip-rule:evenodd;stroke-linejoin:round;stroke-miterlimit:2;">
    <g id="défense--CD-" serif:id="défense (CD)">
        <g transform="matrix(1,0,0,1.15658,0.5,-10.8212)">
            <path d="M64,64.865L71.427,64.865C71.427,64.865 71.427,73.338 71.427,73.338C71.427,73.815 71.875,74.202 72.427,74.202C72.979,74.202 73.427,73.815 73.427,73.338L73.427,64C73.427,63.522 72.979,63.135 72.427,63.135L64,63.135C63.448,63.135 63,63.523 63,64C63,64.477 63.448,64.865 64,64.865Z" class="sp-blue"/>
        </g>
        <g id="G">
            <g transform="matrix(1,0,0,0.96,-38,41.36)">
                <path d="M45,34L45,10.042C45,10.042 56,10.042 56,10.042C56,10.042 56,34 56,34C56,34.575 56.448,35.042 57,35.042C57.552,35.042 58,34.575 58,34L58,9C58,8.425 57.552,7.958 57,7.958L44,7.958C43.448,7.958 43,8.425 43,9L43,34C43,34.575 43.448,35.042 44,35.042C44.552,35.042 45,34.575 45,34Z" class="sp-blue"/>
            </g>
            <g transform="matrix(1,0,0,1,-0.286655,2)">
                <g transform="matrix(1,0,0,1,3.57331,0)">
                    <path d="M10,53L10,57C10,57.552 10.448,58 11,58C11.552,58 12,57.552 12,57L12,53C12,52.448 11.552,52 11,52C10.448,52 10,52.448 10,53Z" class="sp-blue"/>
                </g>
                <path d="M10,53L10,57C10,57.552 10.448,58 11,58C11.552,58 12,57.552 12,57L12,53C12,52.448 11.552,52 11,52C10.448,52 10,52.448 10,53Z" class="sp-blue"/>
            </g>
            <g transform="matrix(1,0,0,1,-0.286655,2)">
                <g transform="matrix(1,0,0,1,3.57331,10.8275)">
                    <path d="M10,53L10,57C10,57.552 10.448,58 11,58C11.552,58 12,57.552 12,57L12,53C12,52.448 11.552,52 11,52C10.448,52 10,52.448 10,53Z" class="sp-blue"/>
                </g>
                <g transform="matrix(1,0,0,1,0,10.8275)">
                    <path d="M10,53L10,57C10,57.552 10.448,58 11,58C11.552,58 12,57.552 12,57L12,53C12,52.448 11.552,52 11,52C10.448,52 10,52.448 10,53Z" class="sp-blue"/>
                </g>
            </g>
        </g>
        <g id="Portes-blindées" serif:id="Portes blindées" transform="matrix(1,0,0,1,-0.0351719,3.16213)">
            <g transform="matrix(1,0,0,1,0.0351719,-3.16213)">
                <path d="M39,66L39,74C39,74.552 39.448,75 40,75C40.552,75 41,74.552 41,74L41,66C41,65.448 40.552,65 40,65C39.448,65 39,65.448 39,66Z" class="sp-blue"/>
            </g>
            <g transform="matrix(3,0,0,1,-102.465,-3.5)">
                <path d="M44.333,74.338L44.333,64.5C44.333,64.5 50.667,64.5 50.667,64.5C50.667,64.5 50.667,74.338 50.667,74.338C50.667,74.89 50.816,75.338 51,75.338C51.184,75.338 51.333,74.89 51.333,74.338L51.333,63.5C51.333,62.948 51.184,62.5 51,62.5L44,62.5C43.816,62.5 43.667,62.948 43.667,63.5L43.667,74.338C43.667,74.89 43.816,75.338 44,75.338C44.184,75.338 44.333,74.89 44.333,74.338Z" class="sp-blue"/>
            </g>
        </g>
        <g transform="matrix(1,0,0,1,0.5,6)">
            <path d="M24,53L55,53C55.552,53 56,52.552 56,52C56,51.448 55.552,51 55,51L24,51C23.448,51 23,51.448 23,52C23,52.552 23.448,53 24,53Z" class="sp-blue"/>
        </g>
        <path d="M22,47.179L22,39.851C22,39.851 60.282,39.851 60.282,39.851C60.282,39.851 60.282,74 60.282,74C60.282,74.552 60.73,75 61.282,75C61.834,75 62.282,74.552 62.282,74L62.282,38.851C62.282,38.299 61.834,37.851 61.282,37.851L21,37.851C20.448,37.851 20,38.299 20,38.851L20,47.179C20,47.731 20.448,48.179 21,48.179C21.552,48.179 22,47.731 22,47.179Z" class="sp-blue"/>
        <g id="Ecusson" transform="matrix(1,0,0,1,0,1)">
            <path d="M39,46L39,48C39,48.552 39.448,49 40,49C40.552,49 41,48.552 41,48L41,46C41,45.448 40.552,45 40,45C39.448,45 39,45.448 39,46Z" class="sp-red"/>
            <path d="M35.716,41.957C35.223,41.957 34.803,42.316 34.727,42.803C34.727,42.803 34.416,44.776 34.85,47.021C35.306,49.38 36.573,52 39.69,53.145C39.933,53.234 40.2,53.226 40.437,53.122C46.638,50.403 45.339,42.782 45.339,42.782C45.255,42.305 44.84,41.957 44.355,41.957L35.716,41.957ZM36.63,43.957L43.462,43.957C43.568,45.623 43.398,49.378 40.005,51.115C37.95,50.189 37.136,48.308 36.813,46.641C36.611,45.593 36.6,44.616 36.63,43.957L36.63,43.957Z" class="sp-red"/>
        </g>
        <g transform="matrix(1,0,0,1,-0.859192,-1)">
            <path d="M26,37L58,37C58.552,37 59,36.552 59,36C59,35.448 58.552,35 58,35L26,35C25.448,35 25,35.448 25,36C25,36.552 25.448,37 26,37Z" class="sp-blue"/>
        </g>
        <g id="Radar" transform="matrix(1,0,0,1,-3,0.212064)">
            <g transform="matrix(1.25,0,0,1.37638,-9.5,-8.00817)">
                <path d="M45.201,18.029C45.201,18.029 45.299,20.447 47.254,22.365C48.533,23.619 50.607,24.686 54.007,24.66C54.448,24.656 54.804,24.328 54.8,23.927C54.796,23.526 54.435,23.203 53.993,23.207C51.202,23.229 49.478,22.407 48.428,21.377C46.89,19.869 46.799,17.971 46.799,17.971C46.782,17.571 46.409,17.258 45.968,17.274C45.527,17.29 45.183,17.628 45.201,18.029Z" class="sp-blue"/>
            </g>
            <g id="Radar1" serif:id="Radar" transform="matrix(-1.07778,0,0,1.07778,94.6891,15.7212)">
                <path d="M40.993,9.883C40.936,9.386 40.513,9 40,9C39.448,9 39,9.448 39,10L39,14L39.007,14.117C39.065,14.614 39.487,15 40,15C40.552,15 41,14.552 41,14L41,10L40.993,9.883Z" class="sp-blue" style="fill-rule:nonzero;"/>
            </g>
        </g>
        <g id="Drapeau" transform="matrix(-1.07778,0,0,1.07778,55.5992,43.3258)">
            <g transform="matrix(1,0,0,4.12289,-0.505661,-101.162)">
                <path d="M39.578,25.404L39.578,17.557C39.578,17.432 39.994,17.332 40.506,17.332C41.018,17.332 41.433,17.432 41.433,17.557L41.433,25.404C41.433,25.528 41.018,25.629 40.506,25.629C39.994,25.629 39.578,25.528 39.578,25.404Z" class="sp-blue"/>
            </g>
            <g transform="matrix(1,0,0,1,-3.71133,0)">
                <g transform="matrix(1,0,0,1,-8.11426,-34.3734)">
                    <path d="M44.993,9.883C44.936,9.386 44.513,9 44,9C43.448,9 43,9.448 43,10L43,14L43.007,14.117C43.065,14.614 43.487,15 44,15C44.552,15 45,14.552 45,14L45,10L44.993,9.883Z" class="sp-red" style="fill-rule:nonzero;"/>
                </g>
                <g transform="matrix(1,0,0,1,0.0267105,-34.3734)">
                    <path d="M40.993,9.883C40.936,9.386 40.513,9 40,9C39.448,9 39,9.448 39,10L39,14L39.007,14.117C39.065,14.614 39.487,15 40,15C40.552,15 41,14.552 41,14L41,10L40.993,9.883Z" class="sp-blue" style="fill-rule:nonzero;"/>
                </g>
            </g>
        </g>
    </g>
</svg>
