<?xml version="1.0" encoding="UTF-8" standalone="no"?>
<!DOCTYPE svg PUBLIC "-//W3C//DTD SVG 1.1//EN" "http://www.w3.org/Graphics/SVG/1.1/DTD/svg11.dtd">
<svg width="100%" height="100%" viewBox="0 0 80 80" version="1.1" xmlns="http://www.w3.org/2000/svg" xmlns:xlink="http://www.w3.org/1999/xlink" xml:space="preserve" xmlns:serif="http://www.serif.com/" style="fill-rule:evenodd;clip-rule:evenodd;stroke-linejoin:round;stroke-miterlimit:2;">
    <g id="Social--santé--CD-" serif:id="Social, santé (CD)" transform="matrix(1.16719,0,0,1.16719,-6.67186,-2.02294)">
        <g id="Droit">
            <g transform="matrix(0.598839,0,0,1,51.5402,20.1085)">
                <path d="M7.93,45.882L20.807,45.882C21.596,45.882 22.237,45.498 22.237,45.025C22.237,44.552 21.596,44.168 20.807,44.168L7.93,44.168C7.141,44.168 6.5,44.552 6.5,45.025C6.5,45.498 7.141,45.882 7.93,45.882Z" class="sp-blue"/>
            </g>
            <g transform="matrix(1,0,0,0.510838,43,31.8608)">
                <path d="M24.143,19L24.143,65.134C24.143,66.059 24.527,66.811 25,66.811C25.473,66.811 25.857,66.059 25.857,65.134L25.857,19C25.857,18.074 25.473,17.323 25,17.323C24.527,17.323 24.143,18.074 24.143,19Z" class="sp-blue"/>
            </g>
            <g transform="matrix(1,0,0,0.92882,27.2865,4.63624)">
                <path d="M24.143,19L24.143,65.134C24.143,65.643 24.527,66.056 25,66.056C25.473,66.056 25.857,65.643 25.857,65.134L25.857,19C25.857,18.491 25.473,18.078 25,18.078C24.527,18.078 24.143,18.491 24.143,19Z" class="sp-blue"/>
            </g>
            <g transform="matrix(1.19947,0,0,1,-13.6226,3.42705)">
                <path d="M59,55.857L64,55.857C64.394,55.857 64.714,55.473 64.714,55C64.714,54.527 64.394,54.143 64,54.143L59,54.143C58.606,54.143 58.286,54.527 58.286,55C58.286,55.473 58.606,55.857 59,55.857Z" class="sp-blue"/>
            </g>
            <g transform="matrix(1,0,0,0.888889,-0.856761,12.7109)">
                <path d="M58,35.036C57.527,35.036 57.143,35.468 57.143,36L57.143,45C57.143,45.532 57.527,45.964 58,45.964L64,45.964C64.473,45.964 64.857,45.532 64.857,45L64.857,36C64.857,35.468 64.473,35.036 64,35.036L58,35.036ZM58.857,36.964L63.143,36.964C63.143,36.964 63.143,44.036 63.143,44.036C63.143,44.036 58.857,44.036 58.857,44.036L58.857,36.964Z" class="sp-blue"/>
            </g>
            <g transform="matrix(0.474873,0,0,1,42.4307,23.7109)">
                <path d="M21,12.143C20.004,12.143 19.196,12.527 19.196,13L19.196,17C19.196,17.473 20.004,17.857 21,17.857L58,17.857C58.996,17.857 59.804,17.473 59.804,17L59.804,13C59.804,12.527 58.996,12.143 58,12.143L21,12.143ZM22.804,13.857L56.196,13.857C56.196,13.857 56.196,16.143 56.196,16.143C56.196,16.143 22.804,16.143 22.804,16.143L22.804,13.857Z" class="sp-blue"/>
            </g>
        </g>
        <g id="Gauche">
            <g transform="matrix(0.599047,0,0,1,11.2494,20.1085)">
                <path d="M7.93,45.882L20.807,45.882C21.596,45.882 22.237,45.498 22.237,45.025C22.237,44.552 21.596,44.168 20.807,44.168L7.93,44.168C7.141,44.168 6.5,44.552 6.5,45.025C6.5,45.498 7.141,45.882 7.93,45.882Z" class="sp-blue"/>
            </g>
            <g transform="matrix(1,0,0,0.510838,-13,31.8608)">
                <path d="M24.143,19L24.143,65.134C24.143,66.059 24.527,66.811 25,66.811C25.473,66.811 25.857,66.059 25.857,65.134L25.857,19C25.857,18.074 25.473,17.323 25,17.323C24.527,17.323 24.143,18.074 24.143,19Z" class="sp-blue"/>
            </g>
            <g transform="matrix(1,0,0,0.928567,2.71352,4.65268)">
                <path d="M24.143,19L24.143,65.134C24.143,65.643 24.527,66.056 25,66.056C25.473,66.056 25.857,65.643 25.857,65.134L25.857,19C25.857,18.491 25.473,18.077 25,18.077C24.527,18.077 24.143,18.491 24.143,19Z" class="sp-blue"/>
            </g>
            <g transform="matrix(1.2,0,0,1,-53.9432,3.42705)">
                <path d="M59,55.857L64,55.857C64.394,55.857 64.714,55.473 64.714,55C64.714,54.527 64.394,54.143 64,54.143L59,54.143C58.606,54.143 58.286,54.527 58.286,55C58.286,55.473 58.606,55.857 59,55.857Z" class="sp-blue"/>
            </g>
            <g transform="matrix(1,0,0,0.888889,-41.1432,12.7109)">
                <path d="M58,35.036C57.527,35.036 57.143,35.468 57.143,36L57.143,45C57.143,45.532 57.527,45.964 58,45.964L64,45.964C64.473,45.964 64.857,45.532 64.857,45L64.857,36C64.857,35.468 64.473,35.036 64,35.036L58,35.036ZM58.857,36.964L63.143,36.964C63.143,36.964 63.143,44.036 63.143,44.036C63.143,44.036 58.857,44.036 58.857,44.036L58.857,36.964Z" class="sp-blue"/>
            </g>
            <g transform="matrix(0.478744,0,0,1,-0.0536209,23.7109)">
                <path d="M21,12.143C20.012,12.143 19.21,12.527 19.21,13L19.21,17C19.21,17.473 20.012,17.857 21,17.857L58,17.857C58.988,17.857 59.79,17.473 59.79,17L59.79,13C59.79,12.527 58.988,12.143 58,12.143L21,12.143ZM22.79,13.857L56.21,13.857C56.21,13.857 56.21,16.143 56.21,16.143C56.21,16.143 22.79,16.143 22.79,16.143L22.79,13.857Z" class="sp-blue"/>
            </g>
        </g>
        <g id="Entrée">
            <g id="Porte" transform="matrix(1,0,0,1,0.0267105,2.43353)">
                <g transform="matrix(1.10587,0,0,1,24.1104,17.6749)">
                    <path d="M7.93,45.882L20.807,45.882C21.234,45.882 21.581,45.498 21.581,45.025C21.581,44.552 21.234,44.168 20.807,44.168L7.93,44.168C7.503,44.168 7.156,44.552 7.156,45.025C7.156,45.498 7.503,45.882 7.93,45.882Z" class="sp-blue"/>
                </g>
                <g transform="matrix(5.29338e-17,-0.463185,1,3.28082e-17,-5.02506,66.1538)">
                    <path d="M7.93,45.882L20.807,45.882C21.827,45.882 22.656,45.498 22.656,45.025C22.656,44.552 21.827,44.168 20.807,44.168L7.93,44.168C6.909,44.168 6.081,44.552 6.081,45.025C6.081,45.498 6.909,45.882 7.93,45.882Z" class="sp-blue"/>
                </g>
                <g transform="matrix(0.909091,0,0,1.2375,11.3636,-33.821)">
                    <path d="M26.942,77L26.942,69.692C26.942,69.692 36.058,69.692 36.058,69.692C36.058,69.692 36.058,77 36.058,77C36.058,77.382 36.48,77.692 37,77.692C37.52,77.692 37.942,77.382 37.942,77L37.942,69C37.942,68.618 37.52,68.308 37,68.308L26,68.308C25.48,68.308 25.058,68.618 25.058,69L25.058,77C25.058,77.382 25.48,77.692 26,77.692C26.52,77.692 26.942,77.382 26.942,77Z" class="sp-blue"/>
                </g>
            </g>
            <g transform="matrix(0.432432,0,0,1,22.9189,37)">
                <path d="M21,12.143C19.906,12.143 19.019,12.527 19.019,13L19.019,17C19.019,17.473 19.906,17.857 21,17.857L58,17.857C59.094,17.857 59.981,17.473 59.981,17L59.981,13C59.981,12.527 59.094,12.143 58,12.143L21,12.143ZM22.981,13.857L56.019,13.857C56.019,13.857 56.019,16.143 56.019,16.143C56.019,16.143 22.981,16.143 22.981,16.143L22.981,13.857Z" class="sp-blue"/>
            </g>
            <g transform="matrix(1.20534,0,0,1,-8.21368,-2.69177)">
                <path d="M35,48.549L45,48.549C45.392,48.549 45.711,48.165 45.711,47.692C45.711,47.219 45.392,46.835 45,46.835L35,46.835C34.608,46.835 34.289,47.219 34.289,47.692C34.289,48.165 34.608,48.549 35,48.549Z" class="sp-red"/>
            </g>
        </g>
        <g id="Croix" transform="matrix(1,0,0,1,0,2.57028)">
            <path d="M40,25.857L41.143,25.857C41.143,25.857 41.143,29 41.143,29C41.143,29.473 41.527,29.857 42,29.857L45.143,29.857C45.143,29.857 45.143,32.143 45.143,32.143C45.143,32.143 42,32.143 42,32.143C41.527,32.143 41.143,32.527 41.143,33L41.143,36.143C41.143,36.143 40,36.143 40,36.143C39.527,36.143 39.143,36.527 39.143,37C39.143,37.473 39.527,37.857 40,37.857L42,37.857C42.473,37.857 42.857,37.473 42.857,37L42.857,33.857C42.857,33.857 46,33.857 46,33.857C46.473,33.857 46.857,33.473 46.857,33L46.857,29C46.857,28.527 46.473,28.143 46,28.143L42.857,28.143C42.857,28.143 42.857,25 42.857,25C42.857,24.527 42.473,24.143 42,24.143L40,24.143C39.527,24.143 39.143,24.527 39.143,25C39.143,25.473 39.527,25.857 40,25.857Z" class="sp-red"/>
            <g transform="matrix(-1,0,0,1,80,0)">
                <path d="M40,24.143L42,24.143C42.473,24.143 42.857,24.527 42.857,25L42.857,28.143C42.857,28.143 46,28.143 46,28.143C46.473,28.143 46.857,28.527 46.857,29L46.857,33C46.857,33.473 46.473,33.857 46,33.857L42.857,33.857C42.857,33.857 42.857,37 42.857,37C42.857,37.473 42.473,37.857 42,37.857L40,37.857C39.527,37.857 39.143,37.473 39.143,37C39.143,36.527 39.527,36.143 40,36.143L41.143,36.143C41.143,36.143 41.143,33 41.143,33C41.143,32.527 41.527,32.143 42,32.143L45.143,32.143C45.143,32.143 45.143,29.857 45.143,29.857C45.143,29.857 42,29.857 42,29.857C41.527,29.857 41.143,29.473 41.143,29L41.143,25.857C41.143,25.857 40,25.857 40,25.857C39.527,25.857 39.143,25.473 39.143,25C39.143,24.527 39.527,24.143 40,24.143Z" class="sp-red"/>
            </g>
        </g>
        <g transform="matrix(0.880639,0,0,1,5.21476,4.28381)">
            <path d="M21,12.143C20.463,12.143 20.027,12.527 20.027,13L20.027,17C20.027,17.473 20.463,17.857 21,17.857L58,17.857C58.537,17.857 58.973,17.473 58.973,17L58.973,13C58.973,12.527 58.537,12.143 58,12.143L21,12.143ZM21.973,13.857L57.027,13.857C57.027,13.857 57.027,16.143 57.027,16.143C57.027,16.143 21.973,16.143 21.973,16.143L21.973,13.857Z" class="sp-blue"/>
        </g>
    </g>
</svg>
