<?xml version="1.0" encoding="UTF-8" standalone="no"?>
<!DOCTYPE svg PUBLIC "-//W3C//DTD SVG 1.1//EN" "http://www.w3.org/Graphics/SVG/1.1/DTD/svg11.dtd">
<svg width="100%" height="100%" viewBox="0 0 80 80" version="1.1" xmlns="http://www.w3.org/2000/svg" xmlns:xlink="http://www.w3.org/1999/xlink" xml:space="preserve" xmlns:serif="http://www.serif.com/" style="fill-rule:evenodd;">
    <g id="Travail-emploi-formation--CD-">
    	<g id="Usine">
    		<g id="Fenêtre-D">
    			<path class="sp-blue" d="M72.06,68.81h-3.34c-.32,0-.57-.26-.57-.57v-8.55c0-.32,.26-.57,.57-.57h3.34c.32,0,.57,.26,.57,.57v8.55c0,.32-.26,.57-.57,.57Zm-2.77-1.14h2.2v-7.4h-2.2v7.4Z"/>
    		</g>
    		<g id="Mur-D">
    			<path class="sp-blue" d="M66.62,76.14h11.97c.6,0,1.09-.49,1.09-1.09s-.49-1.09-1.09-1.09h-11.97c-.6,0-1.09,.49-1.09,1.09s.49,1.09,1.09,1.09Z"/>
    			<path class="sp-blue" d="M79.66,75.05v-20.06c0-.59-.48-1.07-1.07-1.07h-5.37c-.59,0-1.07,.48-1.07,1.07s.48,1.07,1.07,1.07h4.31v18.99c0,.59,.48,1.07,1.07,1.07s1.07-.48,1.07-1.07Z"/>
    		</g>
    		<path class="sp-blue" d="M63.78,75.05v-12.26c0-.62-.5-1.11-1.11-1.11h-7.8c-.62,0-1.11,.5-1.11,1.11v12.26c0,.62,.5,1.11,1.11,1.11s1.11-.5,1.11-1.11v-11.14h5.57v11.14c0,.62,.5,1.11,1.11,1.11s1.11-.5,1.11-1.11Z"/>
    		<g id="Fenêtres">
    			<path class="sp-blue" d="M49.29,65.02c0-.62-.5-1.11-1.11-1.11h-3.34c-.62,0-1.11,.5-1.11,1.11v4.46c0,.62,.5,1.11,1.11,1.11h3.34c.62,0,1.11-.5,1.11-1.11v-4.46Zm-2.23,1.11v2.23h-1.11v-2.23h1.11Z"/>
    			<path class="sp-blue" d="M42.6,65.02c0-.62-.5-1.11-1.11-1.11h-3.34c-.62,0-1.11,.5-1.11,1.11v4.46c0,.62,.5,1.11,1.11,1.11h3.34c.62,0,1.11-.5,1.11-1.11v-4.46Zm-2.23,1.11v2.23h-1.11v-2.23h1.11Z"/>
    			<path class="sp-blue" d="M35.36,65.02c0-.62-.5-1.11-1.11-1.11h-3.34c-.62,0-1.11,.5-1.11,1.11v4.46c0,.62,.5,1.11,1.11,1.11h3.34c.62,0,1.11-.5,1.11-1.11v-4.46Zm-2.23,1.11v2.23h-1.11v-2.23h1.11Z"/>
    		</g>
    		<g id="Trucs-rouges">
    			<path class="sp-red" d="M29.79,60.57h8.36c.62,0,1.11-.5,1.11-1.11s-.5-1.11-1.11-1.11h-8.36c-.62,0-1.11,.5-1.11,1.11s.5,1.11,1.11,1.11Z"/>
    			<path class="sp-red" d="M43.05,60.57h8.36c.62,0,1.11-.5,1.11-1.11s-.5-1.11-1.11-1.11h-8.36c-.62,0-1.11,.5-1.11,1.11s.5,1.11,1.11,1.11Z"/>
    		</g>
    		<g id="Mur-G">
    			<path class="sp-blue" d="M24.22,76.14h26.45c.6,0,1.09-.49,1.09-1.09s-.49-1.09-1.09-1.09H24.22c-.6,0-1.09,.49-1.09,1.09s.49,1.09,1.09,1.09Z"/>
    			<path class="sp-blue" d="M28.97,47.39l-5.33,3.34c-.32,.2-.51,.55-.51,.92v20.06c0,.6,.49,1.09,1.09,1.09s1.09-.49,1.09-1.09v-19.45l4.82-3.02c.51-.32,.66-.99,.34-1.5-.32-.51-.99-.66-1.5-.34Z"/>
    		</g>
    		<g id="Toit">
    			<path class="sp-blue" d="M58.76,48.31v6.69c0,.62,.5,1.11,1.11,1.11s1.11-.5,1.11-1.11v-6.69c0-.62-.5-1.11-1.11-1.11s-1.11,.5-1.11,1.11Z"/>
    			<path class="sp-blue" d="M59.25,47.38l-8.3,5.53v-4.6c0-.62-.5-1.11-1.11-1.11s-1.11,.5-1.11,1.11v6.69c0,.41,.23,.79,.59,.98s.8,.17,1.14-.06l10.03-6.69c.51-.34,.65-1.03,.31-1.55-.34-.51-1.03-.65-1.55-.31Z"/>
    			<path class="sp-blue" d="M49.23,47.38l-8.3,5.53v-4.6c0-.62-.5-1.11-1.11-1.11s-1.11,.5-1.11,1.11v6.69c0,.41,.23,.79,.59,.98s.8,.17,1.14-.06l10.03-6.69c.51-.34,.65-1.03,.31-1.55-.34-.51-1.03-.65-1.55-.31Z"/>
    			<path class="sp-blue" d="M39.2,47.38l-8.3,5.53v-4.6c0-.62-.5-1.11-1.11-1.11s-1.11,.5-1.11,1.11v6.69c0,.41,.23,.79,.59,.98s.8,.17,1.14-.06l10.03-6.69c.51-.34,.65-1.03,.31-1.55-.34-.51-1.03-.65-1.55-.31Z"/>
    		</g>
    		<path class="sp-red" d="M74.37,51.53l-1.06-23.33c-.03-.63-.55-1.13-1.18-1.13h-6.24c-.62,0-1.14,.48-1.18,1.11l-1.7,26.74c-.04,.65,.45,1.21,1.1,1.25,.65,.04,1.21-.45,1.26-1.11l1.63-25.63h4l1.01,22.2c.03,.65,.58,1.16,1.23,1.13,.65-.03,1.16-.58,1.13-1.23Z"/>
    	</g>
    	<g id="Tours-2">
    		<g id="Tour-G">
    			<path class="sp-red" d="M14.27,63.25c-.66,0-1.2-.54-1.2-1.2v-8.26h-2.89v8.26c0,.66-.54,1.2-1.2,1.2s-1.2-.54-1.2-1.2v-9.46c0-.66,.54-1.2,1.2-1.2h5.29c.66,0,1.2,.54,1.2,1.2v9.46c0,.66-.54,1.2-1.2,1.2Z"/>
    			<g id="Fenêtres1">
    				<g id="L4">
    					<path class="sp-blue" d="M18.42,40.14c0-.65-.53-1.18-1.18-1.18h-3.55c-.65,0-1.18,.53-1.18,1.18v4.73c0,.65,.53,1.18,1.18,1.18h3.55c.65,0,1.18-.53,1.18-1.18v-4.73Zm-2.36,1.18v2.36h-1.18v-2.36h1.18Z"/>
    					<path class="sp-blue" d="M10.74,40.14c0-.65-.53-1.18-1.18-1.18h-3.55c-.65,0-1.18,.53-1.18,1.18v4.73c0,.65,.53,1.18,1.18,1.18h3.55c.65,0,1.18-.53,1.18-1.18v-4.73Zm-2.36,1.18v2.36h-1.18v-2.36h1.18Z"/>
    				</g>
    				<g id="L3">
    					<path class="sp-blue" d="M18.42,29.32c0-.65-.53-1.18-1.18-1.18h-3.55c-.65,0-1.18,.53-1.18,1.18v4.73c0,.65,.53,1.18,1.18,1.18h3.55c.65,0,1.18-.53,1.18-1.18v-4.73Zm-2.36,1.18v2.36h-1.18v-2.36h1.18Z"/>
    					<path class="sp-blue" d="M10.74,29.32c0-.65-.53-1.18-1.18-1.18h-3.55c-.65,0-1.18,.53-1.18,1.18v4.73c0,.65,.53,1.18,1.18,1.18h3.55c.65,0,1.18-.53,1.18-1.18v-4.73Zm-2.36,1.18v2.36h-1.18v-2.36h1.18Z"/>
    				</g>
    				<g id="L2">
    					<path class="sp-blue" d="M17.24,24.4h-3.55c-.65,0-1.18-.53-1.18-1.18v-4.73c0-.65,.53-1.18,1.18-1.18h3.55c.65,0,1.18,.53,1.18,1.18v4.73c0,.65-.53,1.18-1.18,1.18Zm-2.36-2.36h1.18v-2.36h-1.18v2.36Z"/>
    					<path class="sp-blue" d="M9.56,24.4h-3.55c-.65,0-1.18-.53-1.18-1.18v-4.73c0-.65,.53-1.18,1.18-1.18h3.55c.65,0,1.18,.53,1.18,1.18v4.73c0,.65-.53,1.18-1.18,1.18Zm-2.36-2.36h1.18v-2.36h-1.18v2.36Z"/>
    				</g>
    				<g id="L1">
    					<path class="sp-blue" d="M17.24,13.58h-3.55c-.65,0-1.18-.53-1.18-1.18V7.67c0-.65,.53-1.18,1.18-1.18h3.55c.65,0,1.18,.53,1.18,1.18v4.73c0,.65-.53,1.18-1.18,1.18Zm-2.36-2.36h1.18v-2.36h-1.18v2.36Z"/>
    					<path class="sp-blue" d="M9.56,13.58h-3.55c-.65,0-1.18-.53-1.18-1.18V7.67c0-.65,.53-1.18,1.18-1.18h3.55c.65,0,1.18,.53,1.18,1.18v4.73c0,.65-.53,1.18-1.18,1.18Zm-2.36-2.36h1.18v-2.36h-1.18v2.36Z"/>
    				</g>
    			</g>
    			<path class="sp-blue" d="M2.33,62.05V2.33H20.92V45.55c0,.64,.52,1.17,1.17,1.17s1.17-.52,1.17-1.17V1.17c0-.64-.52-1.17-1.17-1.17H1.17C.52,0,0,.52,0,1.17V62.05c0,.64,.52,1.17,1.17,1.17s1.17-.52,1.17-1.17Z"/>
    		</g>
    		<g id="Tour-D">
    			<g>
    				<g id="L31">
    					<path class="sp-blue" d="M41.95,32.49c0-.65-.53-1.18-1.18-1.18h-3.55c-.65,0-1.18,.53-1.18,1.18v4.73c0,.65,.53,1.18,1.18,1.18h3.55c.65,0,1.18-.53,1.18-1.18v-4.73Zm-2.36,1.18v2.36h-1.18v-2.36h1.18Z"/>
    					<path class="sp-blue" d="M34.27,32.49c0-.65-.53-1.18-1.18-1.18h-3.55c-.65,0-1.18,.53-1.18,1.18v4.73c0,.65,.53,1.18,1.18,1.18h3.55c.65,0,1.18-.53,1.18-1.18v-4.73Zm-2.36,1.18v2.36h-1.18v-2.36h1.18Z"/>
    				</g>
    				<g id="L21">
    					<path class="sp-blue" d="M41.95,22.44c0-.65-.53-1.18-1.18-1.18h-3.55c-.65,0-1.18,.53-1.18,1.18v4.73c0,.65,.53,1.18,1.18,1.18h3.55c.65,0,1.18-.53,1.18-1.18v-4.73Zm-2.36,1.18v2.36h-1.18v-2.36h1.18Z"/>
    					<path class="sp-blue" d="M34.27,22.44c0-.65-.53-1.18-1.18-1.18h-3.55c-.65,0-1.18,.53-1.18,1.18v4.73c0,.65,.53,1.18,1.18,1.18h3.55c.65,0,1.18-.53,1.18-1.18v-4.73Zm-2.36,1.18v2.36h-1.18v-2.36h1.18Z"/>
    				</g>
    				<g id="L11">
    					<path class="sp-blue" d="M41.95,12.4c0-.65-.53-1.18-1.18-1.18h-3.55c-.65,0-1.18,.53-1.18,1.18v4.73c0,.65,.53,1.18,1.18,1.18h3.55c.65,0,1.18-.53,1.18-1.18v-4.73Zm-2.36,1.18v2.36h-1.18v-2.36h1.18Z"/>
    					<path class="sp-blue" d="M34.27,12.4c0-.65-.53-1.18-1.18-1.18h-3.55c-.65,0-1.18,.53-1.18,1.18v4.73c0,.65,.53,1.18,1.18,1.18h3.55c.65,0,1.18-.53,1.18-1.18v-4.73Zm-2.36,1.18v2.36h-1.18v-2.36h1.18Z"/>
    				</g>
    			</g>
    			<path class="sp-blue" d="M25.99,6.49h20.09V40.77c0,.65,.53,1.18,1.19,1.18s1.19-.53,1.19-1.18V5.3c0-.65-.53-1.18-1.19-1.18H25.99c-.65,0-1.19,.53-1.19,1.18s.53,1.18,1.19,1.18Z"/>
    		</g>
    	</g>
    </g>
</svg>
